<?xml version="1.0" standalone="no"?>
<!DOCTYPE svg PUBLIC "-//W3C//DTD SVG 20010904//EN"
 "http://www.w3.org/TR/2001/REC-SVG-20010904/DTD/svg10.dtd">
<svg version="1.0" xmlns="http://www.w3.org/2000/svg"
 width="512.000000pt" height="512.000000pt" viewBox="0 0 512.000000 512.000000"
 preserveAspectRatio="xMidYMid meet">
<metadata>
Created by potrace 1.11, written by Peter Selinger 2001-2013
</metadata>
<g transform="translate(0.000000,512.000000) scale(0.100000,-0.100000)"
fill="#000000" stroke="none">
<path d="M769 4245 c-189 -37 -305 -156 -338 -346 -7 -43 -11 -245 -11 -582 0
-571 0 -575 -63 -619 -26 -19 -48 -23 -127 -26 l-96 -4 0 -109 0 -109 47 0
c29 0 49 -5 52 -12 4 -10 7 -10 14 -1 6 8 14 3 25 -18 10 -17 13 -27 7 -24 -6
4 -8 -4 -5 -20 4 -22 3 -25 -9 -15 -10 8 -12 17 -5 29 5 10 5 23 -1 32 -7 11
-9 10 -9 -5 0 -19 0 -19 -22 0 -22 18 -22 18 0 -8 14 -15 19 -28 14 -32 -6 -3
-12 0 -15 6 -2 7 -7 11 -10 8 -3 -3 5 -19 18 -35 18 -22 23 -24 19 -10 -6 16
-5 18 7 8 19 -18 29 -16 29 6 0 23 25 45 42 38 9 -4 7 -6 -3 -6 -21 -1 -33
-31 -19 -45 14 -14 42 -17 56 -5 8 6 14 6 18 0 3 -5 0 -12 -6 -15 -7 -3 -1 -3
14 0 l27 6 1 -519 c0 -568 5 -632 53 -728 11 -22 34 -59 53 -81 18 -23 30 -45
26 -49 -4 -5 -2 -5 5 -1 14 8 65 -22 58 -34 -6 -9 23 -22 34 -15 4 2 8 -2 8
-9 0 -8 -6 -12 -14 -9 -7 3 -13 1 -13 -5 0 -6 11 -9 25 -7 19 2 23 -1 15 -10
-13 -16 4 -30 21 -19 8 4 9 -1 4 -17 -4 -17 -3 -20 3 -10 8 11 11 11 16 0 3
-8 3 -3 0 10 -5 19 -3 23 9 18 8 -3 24 1 35 9 18 12 21 12 27 -3 3 -10 1 -19
-4 -21 -6 -2 -9 -8 -6 -12 3 -5 12 -7 20 -3 8 3 15 0 15 -5 0 -6 12 -9 27 -6
15 3 25 3 22 -1 -12 -11 -49 -14 -55 -3 -4 6 -10 5 -15 -3 -6 -10 -9 -10 -9
-2 0 6 -9 10 -20 8 -11 -2 -18 0 -15 5 3 5 1 11 -5 15 -5 3 -10 -3 -10 -14 0
-13 7 -20 20 -20 11 -1 29 -1 40 -2 11 0 18 -5 14 -10 -3 -5 0 -8 8 -7 7 2 12
-3 10 -10 -1 -8 2 -11 8 -7 6 3 8 10 5 15 -8 13 27 22 39 10 8 -8 7 -11 -3 -8
-7 2 -16 -4 -18 -12 -4 -12 -3 -12 5 -1 8 11 10 11 15 0 4 -11 6 -11 7 1 0 10
6 6 16 -10 l15 -25 -7 25 -6 25 24 -22 24 -22 13 20 c7 12 8 18 2 15 -5 -4
-12 -2 -15 3 -4 5 -2 12 3 16 6 3 7 13 4 22 -4 11 -3 14 5 9 7 -4 12 -2 12 3
0 6 5 11 10 11 6 0 3 -11 -5 -24 -11 -17 -13 -26 -5 -31 6 -4 8 -16 4 -27 -4
-12 -2 -18 4 -14 5 3 12 15 15 26 3 11 1 18 -4 14 -5 -3 -9 0 -9 5 0 15 6 14
35 -5 14 -9 22 -21 19 -26 -4 -6 3 -5 15 1 11 7 21 16 21 21 0 6 4 10 8 10 5
0 9 -7 9 -15 0 -8 -3 -15 -7 -15 -4 0 -7 -7 -7 -16 0 -12 4 -11 17 7 22 28 25
75 4 58 -24 -19 -22 -6 2 19 16 17 24 20 30 11 4 -8 3 -9 -4 -5 -7 4 -12 2
-12 -3 0 -6 5 -11 11 -11 8 0 8 -4 1 -13 -7 -8 -6 -18 4 -31 8 -11 14 -15 14
-10 0 6 -6 16 -12 23 -11 11 -10 13 5 8 14 -5 16 -3 9 11 -5 9 -8 25 -7 35 2
9 -1 15 -5 12 -17 -10 -30 31 -17 49 12 16 13 16 14 -4 1 -13 -2 -18 -10 -14
-7 4 -9 3 -4 -1 4 -5 18 -10 30 -11 12 -2 16 0 9 2 -6 3 -10 10 -6 15 3 5 0 9
-7 9 -8 0 -8 4 -2 13 25 31 7 53 -26 33 -11 -7 -13 -5 -8 7 3 9 1 19 -5 23 -7
4 -8 3 -4 -5 4 -6 0 -14 -8 -17 -9 -3 -13 -10 -10 -15 3 -5 9 -7 13 -5 4 3 8
-4 8 -15 2 -18 0 -18 -17 3 -13 17 -15 27 -8 36 8 10 6 11 -8 5 -17 -6 -17 -5
-5 10 7 9 10 17 5 17 -5 0 -9 21 -9 47 l0 48 -95 6 c-95 7 -170 28 -170 49 0
6 -4 9 -9 6 -13 -8 -21 20 -9 32 6 6 6 12 -3 17 -8 5 -10 4 -5 -3 4 -7 1 -12
-8 -12 -10 0 -13 6 -9 17 4 10 2 14 -5 9 -6 -4 -16 3 -22 16 -10 21 -10 22 3
5 9 -11 18 -14 21 -8 4 5 2 12 -4 16 -6 4 -7 11 -4 17 4 7 -2 8 -17 3 -23 -7
-24 -7 -4 9 27 21 35 20 30 -5 -3 -16 -1 -18 9 -10 7 6 16 8 20 4 4 -4 4 0 1
9 -4 9 -13 19 -21 22 -9 3 -13 10 -9 15 3 5 1 12 -5 16 -5 3 -10 1 -10 -4 0
-7 -7 -7 -20 1 -25 16 -25 24 -3 32 11 5 22 1 30 -10 11 -15 13 -16 13 -2 0 9
7 19 16 22 11 4 13 10 6 19 -5 6 -8 20 -7 30 2 9 0 17 -4 17 -4 0 -7 10 -8 23
-2 22 -2 22 19 -3 l20 -25 -14 25 c-14 22 -14 28 -1 47 14 20 14 23 -1 29 -9
4 -20 4 -23 0 -4 -3 1 -6 10 -6 11 0 14 -5 10 -16 -5 -13 -8 -13 -15 -2 -7 10
-8 10 -6 -2 3 -17 -19 -61 -36 -72 -6 -4 -7 -10 -3 -14 3 -4 13 -2 21 5 10 9
15 8 19 -2 4 -10 -3 -13 -24 -12 -40 2 -47 13 -21 31 12 8 20 19 17 24 -3 4 0
10 6 12 7 2 13 21 15 41 2 34 0 36 -14 25 -15 -12 -16 -11 -3 5 9 12 17 14 25
8 9 -7 12 -3 12 14 0 14 -3 25 -7 25 -9 0 -6 27 4 36 10 11 8 24 -4 24 -5 0
-8 -4 -4 -9 3 -5 1 -12 -5 -16 -6 -4 -7 -12 -4 -18 4 -7 4 -9 -1 -5 -9 8 -40
-20 -31 -29 3 -3 12 -1 20 6 10 9 15 8 19 -2 4 -10 -3 -13 -24 -12 -43 3 -44
10 -8 43 21 19 28 31 21 36 -7 4 -12 2 -12 -3 0 -7 -7 -7 -20 1 -25 16 -25 24
-3 32 11 5 22 1 30 -10 11 -15 13 -16 13 -2 0 9 7 19 16 22 11 4 13 10 6 19
-5 6 -8 20 -7 30 2 9 0 17 -4 17 -4 0 -7 10 -8 23 -2 22 -2 22 19 -3 l20 -25
-14 25 c-14 22 -14 28 -1 47 14 20 14 23 -1 29 -9 4 -20 4 -23 0 -4 -3 1 -6
10 -6 11 0 14 -5 10 -16 -5 -13 -8 -13 -15 -2 -7 10 -8 10 -6 -2 3 -17 -19
-61 -36 -72 -6 -4 -7 -10 -3 -14 3 -4 13 -2 21 5 10 9 15 8 19 -2 4 -10 -3
-13 -24 -12 -40 2 -47 13 -21 31 12 8 20 19 17 24 -3 4 0 10 6 12 7 2 13 21
15 41 2 34 0 36 -14 25 -15 -12 -16 -11 -3 5 9 12 17 14 25 8 9 -7 12 -3 12
14 0 14 -3 25 -6 25 -3 0 -6 11 -6 25 0 14 5 25 12 25 7 0 10 -8 7 -19 -3 -10
-1 -21 4 -24 5 -3 8 6 7 21 0 15 -8 28 -20 33 -18 6 -18 7 -1 14 16 7 16 8 1
20 -12 8 -14 14 -6 19 7 4 12 2 12 -3 0 -6 5 -11 10 -11 6 0 5 8 -2 20 -16 25
-33 20 -32 -8 1 -11 -5 -23 -13 -26 -8 -3 -11 -1 -8 4 3 5 8 19 10 30 4 19
-15 27 -48 21 -4 -1 0 10 9 24 13 20 13 25 3 25 -11 0 -11 2 1 10 9 6 19 5 29
-3 12 -10 13 -9 2 10 -10 19 -9 22 3 17 9 -3 15 -9 14 -12 -2 -22 4 -31 21
-29 11 0 17 5 15 9 -3 5 -9 6 -14 3 -5 -3 -11 -1 -15 5 -3 5 -1 10 4 10 6 0
11 5 11 11 0 5 -5 7 -10 4 -6 -3 -10 4 -10 17 0 17 3 19 9 9 6 -9 9 -6 9 12 0
14 -7 28 -14 31 -8 3 -14 11 -14 17 0 8 4 8 15 -1 9 -7 15 -8 15 -2 0 12 -29
24 -41 17 -5 -4 -6 2 -2 11 5 13 3 15 -8 9 -12 -7 -12 -6 0 9 13 16 13 17 -3
14 -22 -4 -31 28 -10 36 7 3 11 12 8 21 -3 8 -11 12 -17 8 -6 -3 -7 -1 -3 6 4
6 11 9 15 7 4 -3 13 -1 21 5 11 6 5 8 -17 5 -18 -2 -31 0 -28 4 4 7 -18 76
-28 86 -4 4 -1 14 5 23 7 9 9 13 4 9 -8 -7 -56 43 -56 58 0 4 6 -1 14 -12 13
-17 15 -17 21 -2 9 23 33 30 57 17 13 -7 18 -7 14 -1 -3 6 -2 13 4 17 5 3 10
1 10 -6 0 -7 3 -10 6 -6 3 3 3 11 -1 17 -5 8 -11 7 -23 -2 -13 -11 -14 -11 -8
0 5 9 -1 23 -15 39 -13 15 -19 23 -12 20 6 -4 13 -4 16 0 2 5 2 3 1 -4 -4 -14
12 -27 19 -16 2 5 2 2 1 -4 -2 -7 3 -13 10 -13 9 0 12 7 9 20 -3 11 -10 20
-15 20 -5 0 -6 5 -3 10 6 9 -8 14 -27 11 -5 0 -8 4 -8 10 0 6 9 8 21 4 18 -6
19 -5 10 13 -14 26 -3 55 16 48 8 -3 17 -6 20 -6 3 0 -1 -8 -8 -17 -12 -14
-12 -16 0 -8 10 5 12 4 7 -4 -4 -6 -12 -9 -17 -5 -11 7 -5 -37 9 -62 8 -14 10
-14 15 5 3 12 1 19 -4 15 -5 -3 -9 2 -9 11 0 9 4 13 10 10 6 -3 7 1 4 9 -6 15
6 21 29 17 5 -1 6 3 2 8 -3 6 -13 7 -23 4 -14 -6 -15 -4 -5 8 12 15 12 43 0
55 -15 15 -6 26 10 13 11 -10 14 -10 9 -1 -4 7 -2 12 4 12 6 0 8 5 4 11 -5 8
-9 8 -14 -1 -5 -8 -10 -9 -14 -2 -4 6 2 16 11 22 17 11 17 11 1 6 -12 -3 -18
0 -18 10 0 8 4 12 10 9 6 -4 7 1 3 11 -4 12 -3 15 5 10 8 -5 10 -2 6 8 -3 9
-9 16 -13 16 -4 0 -8 7 -8 15 0 8 7 15 14 15 8 0 11 -5 7 -12 -4 -7 -3 -8 5
-4 15 10 4 26 -17 26 -16 1 -15 2 1 14 16 12 16 14 2 20 -9 3 -13 11 -9 17 4
8 9 7 15 -2 4 -7 10 -11 13 -9 2 3 -2 13 -9 24 -16 22 -35 13 -30 -13 2 -11
-3 -22 -11 -25 -9 -3 -12 -1 -9 4 3 5 8 19 10 30 4 19 -15 27 -48 21 -4 -1 0
10 9 24 13 20 13 25 3 25 -11 0 -11 2 1 10 9 6 19 5 29 -3 12 -10 13 -9 2 10
-10 19 -9 22 3 17 9 -3 15 -9 14 -12 -2 -22 4 -31 21 -29 11 0 17 5 15 9 -3 5
-9 6 -14 3 -5 -3 -11 -1 -15 5 -3 5 -1 10 4 10 6 0 11 5 11 11 0 5 -5 7 -10 4
-6 -3 -10 4 -10 17 0 19 2 20 10 8 8 -12 9 -9 6 10 -4 31 10 51 32 43 9 -3 14
-3 10 1 -3 4 -12 8 -20 10 -28 4 -38 17 -28 36 13 24 13 30 -1 30 -5 0 -8 -4
-5 -8 2 -4 0 -14 -6 -22 -8 -12 -9 -12 -4 2 3 10 1 20 -4 23 -6 4 -10 1 -10
-4 0 -7 -7 -7 -20 1 -25 16 -25 24 -3 32 11 5 22 1 30 -10 11 -15 13 -16 13
-2 0 9 7 19 16 22 11 4 13 10 6 19 -5 6 -8 20 -7 30 2 9 0 17 -4 17 -4 0 -7
10 -8 23 -2 22 -2 22 19 -3 l20 -25 -14 25 c-14 22 -14 28 -1 47 14 20 14 23
-1 29 -9 4 -20 4 -23 0 -4 -3 1 -6 10 -6 11 0 14 -5 10 -16 -5 -13 -8 -13 -15
-2 -7 10 -8 10 -6 -2 3 -17 -19 -61 -36 -72 -6 -4 -7 -10 -3 -14 3 -4 13 -2
21 5 10 9 15 8 19 -2 4 -10 -3 -13 -24 -12 -40 2 -47 13 -21 31 12 8 20 19 17
24 -3 4 0 10 6 12 7 2 13 21 15 41 2 34 0 36 -14 25 -15 -12 -16 -11 -3 5 9
12 17 14 25 8 9 -7 12 -3 12 14 0 14 -3 25 -7 25 -9 0 -6 27 4 36 10 11 8 24
-4 24 -5 0 -8 -4 -4 -9 3 -5 1 -12 -5 -16 -6 -4 -7 -12 -4 -18 4 -7 4 -9 -1
-5 -9 8 -40 -20 -31 -29 3 -3 12 -1 20 6 10 9 15 8 19 -2 4 -10 -3 -13 -24
-12 -43 3 -44 10 -8 43 21 19 28 31 21 36 -7 4 -12 2 -12 -3 0 -7 -7 -7 -20 1
-25 16 -25 24 -3 32 11 5 22 1 30 -10 8 -11 13 -13 13 -5 0 7 10 21 23 32 13
11 16 18 7 17 -8 -2 -14 5 -14 17 -1 30 -26 46 -44 28 -18 -17 -8 -30 12 -14
10 9 15 8 19 -2 4 -10 -3 -13 -24 -12 -43 3 -44 10 -7 44 18 17 28 31 21 31
-7 0 -20 -9 -30 -20 -18 -19 -19 -19 -19 0 0 10 3 18 6 18 19 -2 30 3 25 12
-3 5 0 7 8 4 9 -3 16 3 20 16 3 14 0 23 -10 27 -13 5 -13 8 3 17 11 6 19 18
19 26 0 8 9 15 19 15 11 0 21 5 23 11 2 6 -13 9 -42 8 -35 -2 -45 1 -45 13 0
13 -2 14 -17 2 -17 -13 -17 -12 -4 4 12 15 17 16 25 5 6 -7 20 -14 31 -16 18
-2 18 -1 -4 16 l-24 19 36 37 c21 20 37 33 37 29 0 -4 7 3 16 15 8 12 12 27 8
34 -4 7 6 3 22 -8 33 -22 61 -25 72 -7 6 9 11 7 19 -7 10 -15 9 -19 -3 -24 -9
-3 -20 -3 -26 0 -6 4 -8 1 -6 -7 3 -8 11 -13 17 -12 6 2 11 -1 11 -7 0 -5 -10
-8 -22 -6 -13 3 -26 5 -30 5 -5 1 -8 6 -8 12 0 5 4 8 9 5 5 -3 12 1 15 9 3 10
1 15 -7 14 -6 -1 -20 2 -31 6 -14 6 -23 2 -37 -16 -10 -13 -19 -20 -19 -14 0
5 -7 -1 -16 -14 -18 -25 -9 -42 26 -48 10 -1 23 -4 27 -5 19 -5 54 15 49 27
-3 10 2 12 17 9 11 -2 31 3 44 11 16 11 23 12 23 4 0 -7 3 -10 6 -6 3 3 3 11
-1 17 -5 8 -11 8 -21 -1 -22 -18 -16 -1 8 23 16 16 20 17 15 5 -4 -11 -1 -17
7 -17 9 0 12 7 9 19 -3 13 2 23 17 31 17 9 19 14 9 26 -7 8 -7 14 -1 14 5 0
13 -7 16 -16 3 -8 10 -13 16 -9 12 7 50 -12 50 -26 0 -6 -7 -3 -16 5 -26 26
-39 18 -14 -9 12 -13 27 -22 33 -18 6 3 7 1 3 -5 -3 -6 -16 -9 -27 -7 -16 3
-18 1 -10 -9 6 -7 7 -17 3 -22 -4 -4 2 -2 13 6 11 8 26 23 33 33 12 15 16 16
30 5 13 -11 14 -11 7 2 -11 18 -16 37 -18 67 -1 18 -4 20 -20 11 -13 -7 -23
-6 -31 2 -8 8 -6 10 9 5 18 -6 17 -4 -4 14 -13 12 -20 21 -16 21 4 0 3 6 -2
13 -11 13 -12 20 -16 107 l-2 55 -110 1 c-60 1 -140 -4 -176 -11z m324 -228
c8 -3 19 -1 25 5 7 7 10 5 8 -8 -2 -11 1 -22 6 -25 5 -3 1 -12 -8 -20 -16 -12
-17 -12 -11 3 7 20 -46 64 -64 53 -6 -4 -5 2 3 14 12 20 13 20 19 2 4 -10 14
-21 22 -24z m-108 16 c18 9 19 9 6 -6 -17 -21 -22 -21 -47 -1 -19 15 -19 15 1
5 14 -6 27 -6 40 2z m-56 -26 c0 -9 -2 -8 -6 1 -7 18 -23 4 -17 -16 5 -14 3
-14 -6 2 -10 14 -10 20 1 27 16 9 29 3 28 -14z m-69 -7 c0 -5 -2 -10 -4 -10
-3 0 -8 5 -11 10 -3 6 -1 10 4 10 6 0 11 -4 11 -10z m122 1 c32 17 29 5 -3
-13 -17 -10 -27 -13 -24 -8 3 6 1 10 -4 10 -6 0 -11 5 -11 12 0 9 3 9 12 0 8
-8 17 -8 30 -1z m-174 -26 c-3 -3 -9 2 -12 12 -6 14 -5 15 5 6 7 -7 10 -15 7
-18z m77 15 c3 -5 1 -10 -4 -10 -6 0 -11 5 -11 10 0 6 2 10 4 10 3 0 8 -4 11
-10z m-100 -29 c-3 -6 -11 -11 -16 -11 -5 0 -4 6 3 14 14 16 24 13 13 -3z m75
-21 c0 -5 -7 -7 -15 -4 -8 4 -15 8 -15 10 0 2 7 4 15 4 8 0 15 -4 15 -10z
m-102 -14 c-7 -8 -16 -12 -20 -9 -5 2 -8 -1 -8 -6 0 -6 -6 -11 -12 -11 -7 1
-2 10 11 20 27 23 48 27 29 6z m76 -8 c-5 -7 -2 -9 9 -5 19 7 44 -18 27 -28
-5 -3 -10 1 -10 10 0 9 -4 14 -10 10 -5 -3 -8 -11 -6 -18 1 -7 1 -9 -1 -4 -3
4 -8 5 -11 3 -4 -2 -8 7 -8 20 -1 13 2 24 8 24 5 0 6 -5 2 -12z m-24 -18 c0
-5 -4 -10 -10 -10 -5 0 -10 5 -10 10 0 6 5 10 10 10 6 0 10 -4 10 -10z m-93
-88 c-9 -2 -15 -8 -11 -13 3 -5 10 -7 15 -4 5 4 9 1 9 -4 0 -13 -10 -14 -28
-3 -19 12 -4 42 16 34 16 -6 15 -7 -1 -10z m30 -14 c-3 -8 -6 -5 -6 6 -1 11 2
17 5 13 3 -3 4 -12 1 -19z m-43 -48 c-6 -6 -10 -3 -10 10 0 13 4 16 10 10 7
-7 7 -13 0 -20z m36 -11 c0 -5 -4 -8 -9 -4 -6 3 -14 -3 -20 -12 -5 -10 -13
-14 -17 -10 -4 4 1 14 12 22 23 17 34 19 34 4z m-36 -149 c-6 -6 -10 -3 -10
10 0 13 4 16 10 10 7 -7 7 -13 0 -20z m54 -1 c-16 -10 -33 5 -23 21 5 8 11 8
21 -1 12 -10 12 -14 2 -20z m-54 -79 c-6 -6 -10 -3 -10 10 0 13 4 16 10 10 7
-7 7 -13 0 -20z m0 -80 c-6 -6 -10 -3 -10 10 0 13 4 16 10 10 7 -7 7 -13 0
-20z m26 -22 c0 -6 -3 -8 -6 -5 -4 3 -16 2 -28 -4 -20 -10 -20 -10 -2 5 24 19
36 20 36 4z m-12 -25 c-9 -2 -15 -10 -12 -18 3 -7 1 -15 -4 -19 -6 -4 -9 24
-3 42 1 1 9 1 19 1 15 -1 16 -2 0 -6z m-14 -113 c-6 -6 -10 -3 -10 10 0 13 4
16 10 10 7 -7 7 -13 0 -20z m54 -1 c-16 -10 -33 5 -23 21 5 8 11 8 21 -1 12
-10 12 -14 2 -20z m-34 -78 c-2 -3 -12 3 -22 13 -16 17 -16 18 5 5 12 -7 20
-15 17 -18z m-14 -32 c0 -28 -15 -23 -16 6 -1 14 2 22 7 19 5 -3 9 -14 9 -25z
m50 6 c7 -8 11 -15 9 -16 -31 -6 -40 -6 -45 2 -6 10 3 29 15 29 5 0 14 -7 21
-15z m-50 -59 c13 -17 13 -18 1 -11 -11 6 -13 4 -8 -8 3 -9 3 -18 -1 -21 -4
-3 -8 11 -9 30 0 19 0 34 1 32 1 -2 8 -12 16 -22z m20 12 c0 -9 3 -8 10 2 5 8
11 12 14 10 2 -3 -1 -13 -8 -22 -11 -15 -13 -15 -24 3 -7 11 -8 19 -2 19 5 0
10 -6 10 -12z m-10 -160 c0 -6 -6 -5 -15 2 -8 7 -15 14 -15 16 0 2 7 1 15 -2
8 -4 15 -11 15 -16z m-10 -39 c0 -28 -15 -23 -16 6 -1 14 2 22 7 19 5 -3 9
-14 9 -25z m40 6 c-7 -8 -10 -15 -6 -15 3 0 -2 -8 -12 -18 -18 -18 -56 -27
-46 -10 3 5 9 6 14 3 5 -3 18 8 30 25 12 16 24 30 27 30 3 0 0 -7 -7 -15z m3
-61 c8 -8 -3 -34 -15 -34 -5 0 -6 5 -2 11 4 7 0 9 -14 5 -11 -4 -23 -2 -27 3
-3 6 0 8 8 5 8 -3 18 -1 22 5 7 12 19 14 28 5z m-24 -50 c21 -15 21 -18 7 -26
-9 -5 -16 -14 -16 -20 0 -6 7 -5 18 3 15 13 16 12 4 -3 -11 -14 -10 -18 4 -26
14 -8 14 -10 -5 -15 -12 -3 -19 -1 -15 4 3 6 1 15 -4 22 -11 15 -12 48 0 41 4
-3 8 0 8 5 0 6 -6 11 -14 11 -8 0 -18 5 -21 10 -9 15 8 12 34 -6z m-34 -54
c-3 -5 -1 -10 4 -10 6 0 11 -5 11 -11 0 -8 -5 -8 -15 1 -13 11 -12 30 1 30 3
0 2 -4 -1 -10z m0 -40 c3 -5 1 -10 -4 -10 -6 0 -11 5 -11 10 0 6 2 10 4 10 3
0 8 -4 11 -10z m65 -10 c0 -5 -2 -10 -4 -10 -3 0 -8 5 -11 10 -3 6 -1 10 4 10
6 0 11 -4 11 -10z m-73 -46 c-3 -3 -12 -4 -19 -1 -8 3 -5 6 6 6 11 1 17 -2 13
-5z m-41 -28 c-2 -14 -1 -27 2 -29 4 -2 2 -2 -5 -1 -6 2 -13 -2 -16 -9 -2 -6
-6 -4 -10 6 -4 10 -2 16 5 14 7 -1 13 4 14 11 1 6 2 17 3 22 0 6 3 10 6 10 3
0 3 -11 1 -24z m21 -8 c-3 -8 -6 -5 -6 6 -1 11 2 17 5 13 3 -3 4 -12 1 -19z
m-88 -55 c-12 -15 -12 -16 4 -10 10 4 16 3 12 -2 -3 -5 0 -11 7 -14 7 -2 4 -2
-7 0 -11 3 -28 5 -38 6 -16 1 -15 4 5 19 29 22 34 23 17 1z m80 1 c-12 -15
-11 -16 9 -10 14 5 22 3 22 -4 0 -6 -4 -9 -10 -5 -5 3 -19 -4 -30 -15 l-20
-20 4 26 c4 20 2 24 -10 20 -9 -3 -12 -2 -9 5 4 6 13 8 21 5 8 -3 14 -1 14 4
0 6 5 10 11 10 8 0 7 -6 -2 -16z m-364 -144 c10 -11 14 -20 9 -20 -5 0 -15 9
-22 20 -7 11 -11 20 -9 20 2 0 12 -9 22 -20z m55 -10 c0 -5 -5 -10 -11 -10 -5
0 -7 5 -4 10 3 6 8 10 11 10 2 0 4 -4 4 -10z m29 -33 c0 -9 -2 -8 -6 1 -2 6
-10 9 -15 6 -7 -4 -8 -2 -4 5 9 13 26 5 25 -12z m-20 -16 c27 -17 -4 -32 -48
-22 -6 1 21 31 28 31 3 0 12 -4 20 -9z m37 -10 c-4 -5 -1 -12 4 -14 6 -3 5 -4
-2 -3 -15 3 -23 26 -8 26 6 0 9 -4 6 -9z m314 -162 c0 -28 -15 -23 -16 6 -1
14 2 22 7 19 5 -3 9 -14 9 -25z m38 -49 c-7 -10 -13 -18 -13 -17 0 1 -7 11
-15 21 -13 17 -13 18 -1 11 11 -6 13 -4 8 9 -6 14 -3 15 13 6 17 -9 18 -14 8
-30z m-38 -4 c13 -17 13 -18 1 -11 -11 6 -13 4 -8 -8 3 -9 3 -18 -1 -21 -4 -3
-8 11 -9 30 0 19 0 34 1 32 1 -2 8 -12 16 -22z m10 -148 c0 -6 -6 -5 -15 2 -8
7 -15 14 -15 16 0 2 7 1 15 -2 8 -4 15 -11 15 -16z m-10 -39 c0 -28 -15 -23
-16 6 -1 14 2 22 7 19 5 -3 9 -14 9 -25z m41 8 c-6 -8 -9 -16 -7 -18 2 -2 -9
-14 -24 -26 -19 -16 -27 -18 -27 -8 0 8 4 12 8 9 4 -2 17 9 29 26 12 16 24 30
27 30 3 0 0 -6 -6 -13z m-4 -52 c0 -8 -2 -13 -5 -10 -2 2 -11 -3 -19 -11 -19
-18 -9 -32 11 -15 10 9 15 8 19 -2 4 -10 -3 -13 -24 -12 -42 3 -45 11 -13 39
16 14 29 26 30 26 0 0 1 -7 1 -15z m-43 -85 c-6 -6 -10 -3 -10 10 0 13 4 16
10 10 7 -7 7 -13 0 -20z m26 -22 c0 -6 -3 -8 -6 -5 -4 3 -16 2 -28 -4 -20 -10
-20 -10 -2 5 24 19 36 20 36 4z m-12 -25 c-9 -2 -15 -10 -12 -18 3 -7 1 -15
-4 -19 -6 -4 -9 24 -3 42 1 1 9 1 19 1 15 -1 16 -2 0 -6z m-14 -113 c-6 -6
-10 -3 -10 10 0 13 4 16 10 10 7 -7 7 -13 0 -20z m54 -1 c-16 -10 -33 5 -23
21 5 8 11 8 21 -1 12 -10 12 -14 2 -20z m-54 -79 c-6 -6 -10 -3 -10 10 0 13 4
16 10 10 7 -7 7 -13 0 -20z m0 -80 c-6 -6 -10 -3 -10 10 0 13 4 16 10 10 7 -7
7 -13 0 -20z m26 -22 c0 -6 -3 -8 -6 -5 -4 3 -16 2 -28 -4 -20 -10 -20 -10 -2
5 24 19 36 20 36 4z m-12 -25 c-9 -2 -15 -10 -12 -18 3 -7 1 -15 -4 -19 -6 -4
-9 24 -3 42 1 1 9 1 19 1 15 -1 16 -2 0 -6z m-14 -113 c-6 -6 -10 -3 -10 10 0
13 4 16 10 10 7 -7 7 -13 0 -20z m54 -1 c-16 -10 -33 5 -23 21 5 8 11 8 21 -1
12 -10 12 -14 2 -20z m-43 -68 c3 -5 0 -13 -6 -17 -7 -4 -9 -3 -5 4 3 5 0 13
-6 15 -9 4 -10 6 -1 6 6 1 14 -3 18 -8z m425 -360 c0 -4 -7 -8 -15 -8 -16 0
-20 9 -9 20 8 8 24 -1 24 -12z m-440 -61 c-8 -5 -19 -10 -25 -10 -5 1 -2 5 8
11 9 6 14 16 11 22 -5 8 -2 7 7 -1 12 -11 12 -14 -1 -22z m388 10 c9 -15 10
-26 2 -40 -13 -25 -16 -25 -47 0 -32 25 -22 26 14 3 26 -17 27 -17 20 0 -4 11
-3 16 3 12 6 -3 10 -2 10 3 0 17 -13 22 -29 9 -14 -10 -14 -10 -4 4 7 9 10 19
6 22 -3 4 -2 7 3 7 5 0 15 -9 22 -20z m-343 0 c3 -5 1 -10 -4 -10 -6 0 -11 5
-11 10 0 6 2 10 4 10 3 0 8 -4 11 -10z m80 -20 c-1 -8 5 -18 14 -22 14 -7 13
-7 -2 -5 -10 1 -17 5 -15 9 2 4 -5 13 -15 20 -18 13 -18 14 1 14 12 0 19 -6
17 -16z m59 -23 c6 6 10 -12 7 -30 -2 -11 32 -4 42 8 5 6 6 2 3 -9 -4 -10 -1
-25 5 -32 15 -19 1 -18 -18 1 -8 8 -19 13 -24 10 -8 -6 -13 8 -10 28 0 4 -3 7
-8 7 -5 0 -16 12 -25 28 l-17 27 19 -22 c11 -12 22 -19 26 -16z m49 17 c11 16
17 17 33 7 17 -11 16 -11 -6 -5 -14 3 -22 3 -18 -1 4 -5 0 -14 -9 -20 -14 -11
-20 -10 -30 4 -7 9 -13 20 -13 25 0 6 6 1 14 -10 14 -19 15 -19 29 0z m75 7
c-2 -4 8 -18 22 -30 14 -13 18 -19 10 -15 -27 13 -50 36 -44 45 7 12 15 12 12
0z m35 -58 c20 -6 22 -19 5 -29 -7 -4 -9 -3 -5 1 4 5 -7 17 -25 28 -18 10 -24
15 -13 11 11 -3 28 -9 38 -11z"/>
<path d="M730 3162 c0 -5 7 -9 15 -9 8 0 12 4 9 9 -3 4 -9 8 -15 8 -5 0 -9 -4
-9 -8z"/>
<path d="M326 2362 c-2 -4 4 -8 14 -8 10 0 16 4 14 8 -3 4 -9 8 -14 8 -5 0
-11 -4 -14 -8z"/>
<path d="M4059 4259 c-5 -16 -4 -211 1 -214 4 -2 32 -5 62 -7 31 -2 54 -6 52
-10 -2 -4 0 -9 6 -13 5 -3 10 -1 10 4 0 6 7 11 16 11 12 0 11 -4 -7 -19 -13
-10 -30 -17 -39 -14 -9 3 -11 1 -5 -4 6 -4 11 -17 13 -28 2 -18 0 -17 -18 5
l-21 25 12 -25 c7 -14 12 -29 11 -33 -1 -5 2 -6 8 -2 5 3 10 -2 11 -12 0 -14
2 -15 7 -3 4 8 16 17 26 18 18 3 18 2 6 -15 -11 -14 -11 -15 0 -6 9 8 19 9 32
2 10 -5 18 -6 17 -2 -4 22 2 32 16 27 11 -5 13 -2 9 10 -3 9 -10 13 -15 10 -5
-3 -6 2 -2 12 5 15 7 14 16 -2 17 -31 31 -35 50 -11 l18 22 -13 -28 c-6 -16
-17 -26 -24 -23 -8 3 -16 1 -19 -5 -4 -5 -11 -7 -16 -4 -5 4 -9 1 -9 -5 0 -10
40 -7 59 4 5 4 12 0 15 -6 3 -7 4 -4 3 6 -3 24 18 32 27 11 3 -9 2 -13 -4 -10
-6 3 -10 1 -10 -4 0 -6 9 -11 20 -11 11 0 19 -3 18 -7 -1 -5 5 -21 12 -38 11
-24 14 -138 16 -550 1 -286 4 -538 8 -559 10 -59 40 -119 74 -148 17 -14 28
-29 24 -33 -4 -4 2 -5 12 -3 10 1 21 -3 23 -9 3 -7 0 -13 -7 -13 -6 0 -8 6 -4
13 4 7 3 9 -2 4 -5 -5 -9 -12 -9 -15 -1 -4 -19 -25 -42 -47 -75 -74 -75 -81
-77 -695 -2 -534 -2 -535 -25 -586 -44 -100 -105 -134 -251 -142 l-95 -4 0
-107 0 -106 48 -3 c45 -3 52 -9 48 -40 -1 -6 2 -12 7 -12 5 0 9 -7 9 -15 0 -8
-7 -15 -14 -15 -8 0 -12 4 -8 9 3 5 1 12 -4 15 -5 4 -8 -1 -7 -11 3 -17 35
-34 49 -26 4 2 7 -1 7 -7 0 -6 5 -8 11 -4 8 4 7 9 -2 15 -7 4 -16 6 -20 4 -12
-8 -4 40 8 48 7 4 11 13 9 20 -1 6 -1 9 1 4 3 -4 10 -4 15 -1 7 4 8 2 4 -4 -4
-7 -2 -12 3 -12 6 0 11 -5 11 -11 0 -8 -4 -8 -14 0 -12 10 -17 8 -25 -8 -9
-16 -8 -22 6 -29 25 -12 46 -9 51 7 3 9 0 11 -9 6 -8 -5 -1 6 15 23 18 19 24
32 16 32 -7 0 -11 3 -8 6 9 9 48 -15 47 -29 0 -9 -2 -9 -6 1 -2 6 -9 12 -14
12 -6 0 -7 -5 -3 -12 4 -6 3 -9 -2 -6 -14 9 -33 -17 -24 -33 7 -11 10 -10 15
3 4 9 15 16 25 15 10 -1 17 -4 14 -8 -2 -4 0 -10 6 -14 5 -3 10 -11 10 -17 0
-5 -9 0 -20 13 -10 13 -19 20 -19 14 0 -13 18 -36 44 -55 19 -14 19 -14 5 4
-14 18 -13 19 2 13 10 -3 20 -2 23 4 4 5 12 6 18 2 18 -11 57 -11 50 0 -4 6 2
8 15 5 14 -4 19 -2 16 6 -6 15 -34 17 -34 3 0 -5 -7 -4 -15 3 -17 14 -20 30
-4 30 5 0 7 -4 4 -10 -3 -5 -2 -10 3 -10 19 0 21 14 6 38 -9 13 -12 22 -6 18
5 -3 12 1 16 9 3 8 10 15 16 15 6 0 4 -7 -4 -16 -22 -21 -5 -54 24 -47 22 6
26 18 10 28 -17 11 -11 28 8 20 9 -4 25 -7 34 -7 10 0 20 -4 23 -9 7 -11 25
-2 25 12 0 6 -4 7 -10 4 -5 -3 -15 5 -21 19 -7 14 -16 23 -21 20 -5 -3 -4 -12
3 -20 8 -10 8 -14 0 -14 -6 0 -11 5 -11 11 0 5 -5 7 -11 4 -6 -4 -5 2 3 14 17
27 24 26 40 -3 7 -14 16 -25 21 -25 4 -1 12 -1 18 -1 8 0 9 -4 0 -13 -6 -8 -9
-17 -6 -20 3 -4 2 -5 -2 -2 -3 3 -12 0 -20 -7 -11 -9 -13 -8 -11 2 2 7 -3 15
-10 17 -11 4 -12 1 -3 -15 6 -11 18 -19 28 -17 10 2 22 4 26 4 5 1 7 7 4 14
-2 6 3 17 12 23 13 10 10 14 -17 28 -18 9 -30 21 -27 25 3 5 -2 11 -10 15 -18
7 -9 36 12 36 9 0 13 6 10 14 -4 10 -1 13 9 9 21 -8 17 -18 -12 -32 -26 -11
-26 -12 -8 -26 11 -8 15 -15 9 -15 -12 0 16 -20 29 -20 4 0 1 12 -9 26 -9 15
-13 24 -7 20 5 -3 12 1 16 9 3 8 10 15 16 15 6 0 4 -7 -4 -16 -24 -23 -5 -53
30 -46 18 3 25 1 20 -6 -7 -12 20 -10 31 3 4 4 3 5 -3 2 -17 -10 -39 19 -23
29 7 4 9 3 6 -3 -3 -5 0 -10 8 -10 8 0 12 8 9 21 -3 21 -3 21 13 1 11 -15 14
-16 10 -3 -3 9 0 19 8 22 14 5 15 22 2 43 -4 6 -3 14 3 18 5 3 10 1 10 -4 0
-6 5 -11 11 -11 8 0 8 5 -1 15 -7 8 -16 13 -20 10 -4 -3 -10 2 -14 10 -3 8
-10 15 -16 15 -7 0 -8 -5 -3 -12 10 -17 11 -58 1 -52 -4 3 -5 -2 -2 -10 4 -9
1 -16 -6 -16 -7 0 -10 -6 -7 -12 3 -8 -5 -14 -19 -14 -13 -1 -24 2 -24 8 0 5
4 7 9 4 4 -3 16 3 25 13 13 15 14 20 4 24 -10 4 -10 6 0 6 6 1 12 6 12 12 0 5
-5 7 -12 3 -6 -4 -9 -3 -6 2 3 5 0 15 -8 21 -10 10 -16 9 -28 -9 -12 -17 -16
-19 -16 -6 0 9 7 18 15 22 9 3 12 12 8 23 -4 10 6 3 21 -15 16 -18 31 -31 34
-28 3 3 -1 12 -8 21 -14 17 -14 17 17 20 12 1 20 -2 17 -6 -3 -5 2 -9 11 -9 9
0 13 5 10 11 -13 21 -12 67 2 62 9 -4 10 -10 3 -23 -7 -13 -5 -21 8 -31 16
-13 16 -12 2 5 -14 18 -13 18 10 11 24 -7 24 -7 5 9 -15 12 -16 15 -5 16 13 0
13 1 0 10 -8 5 -16 15 -16 22 -1 7 -2 17 -3 21 -1 9 -25 -12 -32 -28 -2 -6
-15 1 -29 14 -25 24 -25 24 -1 11 19 -10 26 -9 39 4 9 8 12 19 8 23 -4 4 -11
1 -16 -7 -5 -8 -12 -11 -17 -7 -10 10 18 28 34 22 7 -2 15 0 18 5 4 6 1 10 -5
10 -6 0 -8 5 -5 10 3 5 -1 10 -9 10 -9 0 -16 -5 -16 -11 0 -5 -4 -8 -9 -5 -5
4 -11 0 -14 -6 -3 -7 -5 -4 -4 7 1 20 10 24 65 26 12 1 22 5 22 11 0 5 -4 6
-10 3 -5 -3 -10 -2 -10 4 0 6 -8 8 -17 4 -15 -5 -14 -3 2 10 19 15 19 16 2 23
-14 5 -16 9 -6 15 18 11 28 2 24 -21 -2 -11 0 -20 6 -20 8 0 10 7 8 26 0 3 8
12 18 20 16 14 16 14 -6 3 -21 -10 -23 -9 -18 5 4 9 9 22 12 29 3 6 1 18 -4
26 -8 12 -12 12 -26 -2 -9 -10 -26 -22 -38 -28 -19 -9 -18 -7 3 10 14 11 21
23 17 28 -5 4 -12 1 -16 -6 -5 -8 -11 -9 -15 -3 -8 13 19 23 42 15 15 -6 15
-4 -2 15 -19 22 -43 31 -31 12 3 -5 1 -10 -4 -10 -19 0 -12 12 22 43 17 15 24
26 15 23 -12 -3 -15 -1 -12 9 3 8 -2 22 -11 31 -9 9 -14 23 -11 30 3 8 0 14
-6 14 -6 0 -9 2 -6 5 3 3 13 2 22 -1 13 -5 14 -9 5 -14 -9 -6 -8 -12 4 -25 10
-9 17 -21 17 -26 0 -6 4 -8 9 -4 6 3 8 -4 6 -15 -2 -11 2 -20 8 -20 8 0 8 -3
-2 -9 -9 -6 -10 -10 -2 -16 9 -5 9 -10 0 -21 -8 -10 -8 -14 0 -14 10 0 15 14
12 34 -1 4 4 15 11 24 10 12 10 14 1 8 -12 -7 -18 5 -14 27 1 4 -6 15 -14 24
-9 8 -14 22 -11 29 3 8 -7 21 -24 31 -17 9 -30 22 -30 27 0 5 8 2 18 -7 25
-23 39 -22 19 1 -10 10 -14 22 -10 27 5 4 0 5 -9 2 -23 -8 -23 -5 2 16 20 17
20 16 16 -5 -6 -34 15 -49 45 -31 23 13 23 14 2 8 -13 -4 -23 -3 -24 2 0 4 -3
17 -5 28 -12 48 -12 70 -1 77 17 11 27 10 27 -3 0 -5 -5 -7 -12 -3 -7 5 -8 3
-3 -6 5 -8 4 -11 -2 -7 -9 6 -10 -12 -4 -45 0 -4 14 1 30 10 34 19 34 30 1 12
-24 -13 -43 -4 -21 9 7 5 15 20 16 35 3 23 1 24 -16 16 -26 -14 -24 -2 2 19
17 13 20 22 12 37 -5 10 -8 31 -7 47 2 15 -1 27 -5 27 -11 0 -8 -74 4 -82 13
-10 -15 -30 -33 -23 -9 3 -11 -1 -7 -15 4 -11 2 -20 -3 -20 -5 0 -9 7 -10 15
-1 8 -3 22 -4 30 -1 8 -5 15 -10 15 -4 0 -8 5 -8 12 0 6 11 1 25 -12 14 -13
28 -20 32 -16 4 4 1 11 -7 16 -11 7 -11 11 -1 23 10 12 10 20 -1 36 -14 23
-28 28 -28 10 0 -5 -5 -7 -11 -3 -17 10 12 25 36 17 20 -6 20 -5 1 16 -19 21
-43 30 -31 11 3 -5 1 -10 -4 -10 -18 0 -12 19 9 30 11 6 18 15 15 19 -3 5 2
11 10 14 10 4 12 1 9 -11 -5 -13 -4 -14 4 -3 7 9 12 10 16 2 4 -6 2 -11 -5
-11 -8 0 -9 -4 0 -13 8 -10 7 -17 -1 -25 -9 -9 -9 -12 0 -12 12 0 14 4 15 43
1 12 8 28 17 35 12 11 11 11 -9 1 -21 -10 -23 -9 -18 5 4 9 9 22 12 29 3 6 1
18 -4 26 -8 12 -12 12 -26 -2 -9 -10 -26 -22 -38 -28 -19 -9 -18 -7 3 10 14
11 21 23 17 28 -5 4 -12 1 -16 -6 -5 -8 -11 -9 -15 -3 -8 13 19 23 42 15 15
-6 15 -4 -2 15 -19 22 -43 31 -31 12 3 -5 1 -10 -4 -10 -19 0 -12 12 22 43 17
15 25 26 16 24 -13 -4 -15 -1 -12 14 3 10 1 19 -5 19 -5 0 -12 7 -15 14 -4 10
-1 13 8 10 8 -3 17 -14 20 -25 4 -11 10 -17 15 -14 5 3 7 -4 5 -15 -2 -11 2
-20 8 -20 8 0 8 -3 -2 -9 -9 -6 -10 -10 -2 -16 9 -5 9 -10 0 -21 -8 -10 -8
-14 0 -14 10 0 15 14 12 34 -1 4 4 15 11 24 10 12 10 14 1 8 -7 -4 -14 -2 -14
3 -3 20 -5 26 -17 47 -6 12 -8 25 -4 29 4 5 -1 5 -11 2 -12 -5 -16 -3 -11 4 4
8 -1 9 -17 4 -13 -4 -21 -4 -17 0 12 12 71 14 86 3 6 -6 12 -7 12 -3 0 4 -8
14 -17 22 -10 7 -13 13 -8 12 24 -3 27 2 10 21 -10 11 -23 20 -29 20 -6 0 -2
-7 8 -15 11 -8 16 -15 10 -15 -20 0 -34 17 -28 33 5 15 9 15 38 -5 l31 -22
-23 25 c-12 14 -19 28 -16 32 3 3 2 12 -2 19 -12 19 -14 38 -3 38 6 0 9 -7 7
-16 -2 -10 3 -19 10 -21 8 -3 10 2 6 14 -4 13 -3 14 4 5 5 -8 12 -13 16 -13
24 3 28 0 16 -14 -9 -11 -15 -12 -20 -5 -5 8 -10 6 -19 -3 -9 -12 -8 -16 3
-20 9 -4 18 -2 21 4 4 5 11 6 17 3 6 -4 8 -2 5 3 -4 6 0 16 8 23 17 14 21 45
5 35 -6 -4 -8 -11 -4 -16 3 -5 -11 2 -31 15 -20 14 -44 22 -53 20 -14 -5 -15
-4 -2 5 11 7 23 5 47 -9 34 -20 43 -15 21 9 -10 11 -10 13 0 7 6 -4 12 -3 12
3 0 6 10 16 23 22 l22 11 -23 -22 c-13 -12 -21 -25 -17 -28 3 -4 11 0 16 8 9
13 10 12 5 -2 -3 -10 -1 -20 5 -23 5 -4 7 -10 5 -14 -3 -4 1 -8 9 -8 8 0 12 4
9 8 -2 4 0 10 6 14 5 3 10 1 10 -6 0 -7 3 -10 6 -6 3 3 3 11 -1 17 -5 8 -11 8
-21 -1 -8 -7 -14 -7 -14 -1 0 17 27 21 54 7 15 -8 28 -10 32 -4 3 5 11 6 17 2
15 -9 84 -14 71 -5 -16 12 -10 32 16 53 18 13 19 17 6 13 -14 -5 -17 -3 -14 7
3 8 1 22 -3 31 -6 10 -5 19 1 23 5 3 10 1 10 -6 0 -7 3 -9 6 -6 4 4 2 13 -5
21 -6 8 -10 20 -9 27 4 17 -54 19 -59 3 -4 -13 26 -12 47 1 9 5 7 0 -4 -13
-11 -12 -15 -22 -9 -22 5 0 10 -7 10 -16 0 -15 -2 -14 -13 1 -8 10 -11 22 -8
27 3 5 -2 8 -12 6 -14 -2 -19 4 -20 22 -1 14 -3 30 -4 35 -2 6 -3 35 -4 65
l-2 55 -84 6 c-88 5 -140 20 -140 40 0 8 4 9 13 0 10 -8 14 -7 14 4 0 8 -4 12
-8 9 -11 -6 -30 31 -21 41 4 4 -3 4 -15 1 -12 -4 -24 -3 -26 2 -3 4 6 7 21 6
40 -2 42 -3 42 -15 0 -5 -5 -7 -12 -3 -7 5 -8 3 -3 -5 5 -10 10 -10 19 -1 8 9
5 16 -12 30 -15 12 -19 21 -11 26 6 3 16 0 21 -7 7 -10 8 -9 3 6 -7 23 -8 25
-6 43 0 7 7 10 14 7 6 -4 1 3 -13 15 -13 12 -26 29 -28 38 -10 48 -10 67 1 74
17 11 27 10 27 -3 0 -5 -5 -7 -12 -3 -7 5 -8 3 -3 -6 5 -8 4 -11 -2 -7 -9 6
-10 -12 -4 -45 0 -4 14 1 30 10 34 19 34 30 1 12 -24 -13 -43 -4 -21 9 7 5 15
20 16 35 3 23 1 24 -16 16 -26 -14 -24 -2 2 19 17 13 20 22 12 37 -5 10 -8 31
-7 47 2 15 -1 27 -5 27 -11 0 -8 -74 4 -82 13 -10 -15 -30 -33 -23 -9 3 -11
-1 -7 -15 4 -11 2 -20 -3 -20 -5 0 -9 7 -10 15 -1 8 -3 22 -4 30 -1 8 -5 15
-10 15 -4 0 -8 5 -8 12 0 6 11 1 25 -12 14 -13 28 -20 32 -16 4 4 1 11 -7 16
-11 7 -11 11 -1 23 10 12 10 20 -1 36 -14 23 -28 28 -28 10 0 -5 -5 -7 -11 -3
-17 10 12 25 36 17 20 -6 20 -5 1 16 -19 21 -43 30 -31 11 3 -5 1 -10 -4 -10
-18 0 -12 19 9 30 11 6 18 15 15 19 -3 5 2 11 10 14 10 4 12 1 9 -11 -5 -13
-4 -14 4 -3 7 9 12 10 16 2 4 -6 2 -11 -5 -11 -8 0 -9 -4 0 -13 8 -10 7 -17
-1 -25 -9 -9 -9 -12 0 -12 12 0 14 4 15 43 1 12 8 28 17 35 12 11 11 11 -9 1
-20 -9 -23 -9 -18 2 3 8 8 21 11 29 3 8 2 21 -3 29 -8 12 -12 12 -26 -2 -9
-10 -26 -22 -38 -28 -19 -9 -18 -7 3 10 14 11 21 23 17 28 -5 4 -12 1 -16 -6
-5 -8 -11 -9 -15 -3 -8 13 19 23 42 15 15 -6 15 -4 -2 15 -19 22 -43 31 -31
12 3 -5 1 -10 -4 -10 -19 0 -12 12 22 43 17 15 24 26 15 23 -12 -3 -15 -1 -12
9 3 8 -2 22 -11 31 -9 9 -14 23 -11 30 3 8 0 14 -6 14 -6 0 -9 2 -6 5 3 3 13
2 22 -1 13 -5 14 -9 5 -14 -9 -6 -8 -12 4 -25 10 -9 17 -21 17 -26 0 -6 4 -8
9 -4 6 3 8 -4 6 -15 -2 -11 2 -20 8 -20 8 0 8 -3 -2 -9 -9 -6 -10 -10 -2 -16
9 -5 9 -10 0 -21 -8 -10 -8 -14 0 -14 10 0 15 14 12 34 -1 4 4 15 11 24 10 12
10 14 1 8 -12 -7 -18 5 -14 27 1 4 -6 15 -14 24 -9 8 -14 22 -11 29 3 8 -7 21
-24 31 -17 9 -30 22 -30 27 0 5 8 2 18 -7 25 -23 39 -22 19 1 -10 10 -14 22
-10 27 5 4 0 5 -9 2 -23 -8 -23 -5 2 16 20 17 20 16 16 -5 -6 -34 15 -49 45
-31 23 13 23 14 2 8 -13 -4 -23 -3 -24 2 0 4 -3 17 -5 28 -12 48 -12 70 -1 77
17 11 27 10 27 -3 0 -5 -5 -7 -12 -3 -7 5 -8 3 -3 -6 5 -8 4 -11 -2 -7 -9 6
-10 -12 -4 -45 0 -4 14 1 30 10 34 19 34 30 1 12 -24 -13 -43 -4 -21 9 7 5 15
20 16 35 3 23 1 24 -16 16 -25 -14 -25 2 1 18 23 14 25 25 8 44 -33 36 -39 57
-24 87 10 19 12 31 5 38 -15 15 -18 47 -6 55 6 3 -2 5 -16 5 -30 -2 -38 -17
-9 -17 14 0 15 -2 2 -10 -23 -15 -27 -12 -26 13 0 12 7 23 14 23 6 1 17 2 24
3 13 1 -22 30 -37 31 -5 0 -4 -4 3 -9 11 -7 11 -9 -1 -14 -10 -4 -14 0 -12 11
1 9 -3 24 -9 32 -9 13 -9 13 5 2 14 -10 19 -9 30 5 11 15 11 16 -1 6 -11 -10
-18 -7 -37 14 -13 14 -22 32 -19 39 3 8 1 14 -5 14 -5 0 -13 8 -16 18 -13 34
-67 92 -117 126 -84 57 -161 77 -318 83 -76 3 -139 4 -139 2z m179 -253 c-7
-8 -16 -12 -20 -9 -5 2 -8 -1 -8 -6 0 -6 -6 -11 -12 -11 -7 1 -2 10 11 20 27
23 48 27 29 6z m20 -15 c-7 -12 -18 -21 -23 -21 -6 0 -16 -5 -23 -12 -19 -19
-38 -17 -38 2 0 14 4 16 17 9 13 -6 24 -1 45 19 33 32 41 33 22 3z m39 -3 c-3
-8 -6 -5 -6 6 -1 11 2 17 5 13 3 -3 4 -12 1 -19z m-47 -43 c0 -8 -4 -15 -9
-15 -13 0 -22 16 -14 24 11 11 23 6 23 -9z m488 -116 c9 -13 7 -22 -12 -47
-12 -18 -26 -29 -29 -25 -4 3 2 12 13 20 11 8 20 19 20 25 0 6 -6 6 -15 -2 -9
-7 -18 -10 -22 -6 -3 3 -1 6 7 6 10 0 10 3 0 15 -9 10 -9 15 -1 15 6 0 11 -5
11 -11 0 -5 4 -8 10 -4 5 3 6 13 3 23 -6 18 -5 17 15 -9z m0 -107 c2 -7 -5
-16 -16 -19 -12 -3 -18 -11 -15 -19 4 -11 7 -11 19 1 14 14 44 11 44 -5 0 -11
-30 -21 -42 -14 -6 4 -8 -1 -3 -15 4 -14 2 -21 -6 -21 -7 0 -10 3 -6 6 3 4 -1
20 -9 36 -14 28 -14 30 5 35 12 3 21 10 21 15 0 6 -9 8 -20 5 -11 -3 -17 -1
-14 4 8 14 36 7 42 -9z m-24 -129 c3 -11 0 -26 -6 -34 -8 -11 -9 -10 -4 4 3
10 0 17 -7 18 -9 0 -9 2 0 5 7 3 9 13 6 22 -3 9 -3 14 1 11 4 -4 8 -15 10 -26z
m-7 -235 c-3 -8 -6 -5 -6 6 -1 11 2 17 5 13 3 -3 4 -12 1 -19z m63 -95 c0 -5
-5 -15 -10 -23 -9 -13 -10 -13 -10 0 -1 12 -3 11 -11 -2 -5 -10 -16 -18 -24
-18 -9 0 -12 -6 -9 -17 5 -15 4 -15 -4 -3 -12 16 -7 30 11 30 7 0 18 9 25 20
12 20 32 27 32 13z m-40 -172 c0 -6 -5 -13 -12 -17 -7 -5 -8 -3 -3 6 6 10 4
12 -9 7 -10 -4 -15 -3 -11 3 8 13 35 13 35 1z m-16 -138 c3 -11 0 -26 -6 -34
-8 -11 -9 -10 -4 4 3 10 0 17 -7 18 -9 0 -9 2 0 5 7 3 9 13 6 22 -3 9 -3 14 1
11 4 -4 8 -15 10 -26z m14 -50 c-2 -10 7 -22 22 -30 14 -7 20 -13 13 -13 -6 0
-10 -8 -8 -17 1 -10 -6 -26 -16 -35 -22 -21 -36 -24 -20 -4 10 11 8 17 -6 25
-10 6 -12 11 -5 11 6 0 12 4 12 10 0 5 -8 7 -17 3 -14 -5 -15 -3 -6 7 14 15
35 4 31 -17 -2 -9 2 -18 9 -20 8 -3 11 3 8 17 -6 32 -26 52 -44 45 -11 -4 -10
-1 4 14 25 25 27 25 23 4z m7 -164 c11 -16 1 -19 -13 -3 -7 8 -8 14 -3 14 5 0
13 -5 16 -11z m274 -286 c6 -11 6 -24 0 -35 -11 -20 -4 -38 12 -38 6 0 8 4 5
9 -8 13 4 41 17 41 7 0 7 -4 -1 -12 -16 -16 -15 -31 1 -22 6 4 4 -1 -5 -12 -9
-10 -17 -23 -17 -29 1 -17 -18 -17 -25 0 -4 10 -2 14 5 9 7 -4 10 -1 7 7 -3 8
-14 13 -24 11 -11 -2 -15 0 -8 5 27 19 39 84 13 67 -5 -3 -9 0 -9 5 0 17 18
13 29 -6z m-124 -20 c9 13 14 12 39 -8 16 -13 36 -21 45 -18 13 4 14 3 2 -5
-11 -8 -23 -5 -43 10 -23 16 -32 17 -43 8 -12 -10 -18 -10 -30 0 -8 7 -15 17
-15 22 0 5 8 2 17 -7 15 -15 18 -15 28 -2z m82 2 c0 -8 -4 -15 -9 -15 -10 0
-11 14 -1 23 9 10 10 9 10 -8z m-153 -1 c14 -5 14 -9 4 -22 -11 -13 -9 -14 12
-8 20 6 18 3 -9 -14 -31 -20 -34 -20 -52 -4 -18 16 -18 18 -3 36 19 20 24 21
48 12z m116 -42 c20 -16 21 -20 7 -25 -11 -4 -14 -2 -10 9 7 18 -4 18 -23 -1
-18 -17 -34 -20 -34 -4 0 5 4 8 9 5 5 -3 15 2 22 11 12 15 12 16 -4 10 -11 -4
-16 -3 -12 3 9 14 20 12 45 -8z m-193 -27 c-23 -22 -33 -18 -12 5 10 11 20 18
23 16 2 -3 -3 -12 -11 -21z m248 -12 c5 -14 4 -15 -6 -6 -9 9 -16 10 -26 2 -9
-8 -13 -8 -13 -1 0 9 15 19 31 21 4 1 10 -7 14 -16z m-248 -28 c-4 -8 -2 -17
3 -20 6 -4 10 -12 10 -18 0 -7 -7 -4 -15 6 -12 17 -11 47 2 47 3 0 3 -7 0 -15z
m-23 -23 c2 -4 0 -14 -6 -22 -8 -12 -9 -12 -5 2 3 9 1 19 -6 22 -9 3 -9 5 0 5
6 1 14 -3 17 -7z m3 -47 c-17 -12 -16 -14 9 -34 15 -12 25 -23 23 -25 -2 -2
-17 7 -33 20 -28 24 -28 26 -10 43 11 10 21 16 24 14 3 -3 -3 -11 -13 -18z
m-10 -177 c-3 -8 -6 -5 -6 6 -1 11 2 17 5 13 3 -3 4 -12 1 -19z m63 -95 c0 -5
-5 -15 -10 -23 -9 -13 -10 -13 -10 0 -1 12 -3 11 -11 -2 -5 -10 -16 -18 -24
-18 -9 0 -12 -6 -9 -17 5 -15 4 -15 -4 -3 -12 16 -7 30 11 30 7 0 18 9 25 20
12 20 32 27 32 13z m-40 -172 c0 -6 -5 -13 -12 -17 -7 -5 -8 -3 -3 6 6 10 4
12 -9 7 -10 -4 -15 -3 -11 3 8 13 35 13 35 1z m-16 -138 c3 -11 0 -26 -6 -34
-8 -11 -9 -10 -4 4 3 10 0 17 -7 18 -9 0 -9 2 0 5 7 3 9 13 6 22 -3 9 -3 14 1
11 4 -4 8 -15 10 -26z m-7 -235 c-3 -8 -6 -5 -6 6 -1 11 2 17 5 13 3 -3 4 -12
1 -19z m63 -95 c0 -5 -5 -15 -10 -23 -8 -13 -10 -13 -10 -1 0 12 -2 12 -12 -1
-7 -9 -19 -18 -27 -20 -11 -3 -11 -7 3 -20 15 -16 15 -17 -2 -15 -22 1 -23 38
-1 46 8 2 20 12 27 23 13 18 32 25 32 11z m-60 -103 c0 -5 -4 -10 -10 -10 -5
0 -10 5 -10 10 0 6 5 10 10 10 6 0 10 -4 10 -10z m-25 -130 c3 -5 1 -10 -4
-10 -6 0 -11 5 -11 10 0 6 2 10 4 10 3 0 8 -4 11 -10z m12 -25 c14 2 20 -2 16
-11 -3 -8 -9 -14 -15 -14 -5 0 -6 5 -3 10 3 6 1 10 -5 10 -6 0 -13 -7 -16 -15
-4 -8 -11 -15 -16 -15 -6 0 -4 8 3 17 12 14 12 16 -2 11 -9 -4 -16 -1 -16 7 0
9 6 11 16 6 9 -4 26 -6 38 -6z m-82 -114 c-6 -5 -25 10 -25 20 0 5 6 4 14 -3
8 -7 12 -15 11 -17z m35 19 c0 -5 -4 -10 -10 -10 -5 0 -10 5 -10 10 0 6 5 10
10 10 6 0 10 -4 10 -10z m66 -25 c1 -7 -4 -16 -12 -19 -11 -4 -12 -1 -5 13 6
10 8 21 6 25 -3 3 -2 4 2 1 4 -3 8 -12 9 -20z m-66 -5 c0 -5 -4 -10 -10 -10
-5 0 -10 5 -10 10 0 6 5 10 10 10 6 0 10 -4 10 -10z m-153 -44 c-10 -8 -18
-17 -17 -20 1 -4 -1 -12 -4 -19 -2 -6 -4 -2 -2 11 1 13 9 28 17 33 22 14 26
10 6 -5z m127 -1 c3 -8 1 -15 -4 -15 -6 0 -10 7 -10 15 0 8 2 15 4 15 2 0 6
-7 10 -15z m-174 -26 c-8 -5 -24 -14 -35 -20 -18 -9 -19 -9 -3 4 10 8 16 16
13 18 -2 3 6 6 18 6 17 2 19 0 7 -8z m-96 -24 c-4 -8 -11 -12 -16 -9 -6 4 -5
10 3 15 19 12 19 11 13 -6z m-24 -30 c0 -5 -5 -3 -10 5 -5 8 -10 20 -10 25 0
6 5 3 10 -5 5 -8 10 -19 10 -25z m64 19 c5 -14 4 -15 -9 -4 -17 14 -19 20 -6
20 5 0 12 -7 15 -16z m-218 -9 c-1 -8 -5 -17 -8 -21 -5 -4 -4 16 1 34 3 9 9
-1 7 -13z m74 -6 c0 -6 -4 -7 -10 -4 -5 3 -10 11 -10 16 0 6 5 7 10 4 6 -3 10
-11 10 -16z m149 -17 c-5 -2 -16 1 -24 8 -11 9 -17 6 -29 -17 -8 -15 -15 -22
-16 -14 0 8 7 22 15 32 13 14 20 15 40 5 13 -6 20 -13 14 -14z m65 13 c3 -8 1
-15 -4 -15 -6 0 -10 7 -10 15 0 8 2 15 4 15 2 0 6 -7 10 -15z m-97 -40 c-1
-14 -5 -25 -10 -25 -8 0 -9 9 -1 33 8 25 13 21 11 -8z m-152 5 c3 -5 1 -10 -4
-10 -6 0 -11 5 -11 10 0 6 2 10 4 10 3 0 8 -4 11 -10z m188 -17 c18 -20 18
-21 1 -19 -9 2 -19 13 -21 26 -2 13 -2 22 -1 19 2 -2 11 -14 21 -26z"/>
<path d="M4735 3680 c-3 -5 -1 -10 4 -10 6 0 11 5 11 10 0 6 -2 10 -4 10 -3 0
-8 -4 -11 -10z"/>
<path d="M4771 2416 c-10 -12 -8 -17 8 -25 12 -7 22 -7 26 -2 3 5 -3 12 -12
14 -17 4 -17 5 0 6 9 0 17 6 17 11 0 15 -26 12 -39 -4z"/>
<path d="M1090 4121 c0 -6 5 -13 10 -16 6 -3 10 1 10 9 0 9 -4 16 -10 16 -5 0
-10 -4 -10 -9z"/>
<path d="M1127 4108 c-18 -19 -20 -19 -38 -2 -11 10 -19 12 -19 6 0 -7 5 -12
10 -12 6 0 10 -5 10 -11 0 -16 28 -40 35 -30 3 6 11 9 18 7 7 -1 9 -1 4 1 -4
3 -5 9 -1 14 3 5 0 9 -7 9 -8 0 -8 4 1 15 19 23 8 25 -13 3z m3 -28 c0 -5 -5
-10 -11 -10 -5 0 -7 5 -4 10 3 6 8 10 11 10 2 0 4 -4 4 -10z"/>
<path d="M4150 4021 c0 -5 7 -12 16 -15 14 -5 15 -4 4 9 -14 17 -20 19 -20 6z"/>
<path d="M1016 3985 c-10 -8 -16 -21 -13 -29 4 -9 2 -18 -3 -21 -6 -4 -10 -12
-10 -18 0 -8 3 -7 9 2 5 7 11 9 13 5 3 -5 3 -3 1 5 -2 9 2 11 13 7 8 -3 18 -6
20 -6 3 0 2 -6 -2 -12 -4 -8 -3 -9 2 -5 5 5 9 16 9 25 0 10 7 16 15 14 13 -2
13 -1 0 11 -8 7 -19 18 -25 24 -7 9 -15 8 -29 -2z m27 -20 c9 -21 -9 -27 -24
-8 -10 12 -10 14 -1 9 6 -4 12 -2 12 3 0 16 7 13 13 -4z"/>
<path d="M915 3960 c-3 -5 -1 -10 4 -10 6 0 11 5 11 10 0 6 -2 10 -4 10 -3 0
-8 -4 -11 -10z"/>
<path d="M1115 3920 c-3 -5 -1 -10 4 -10 6 0 11 5 11 10 0 6 -2 10 -4 10 -3 0
-8 -4 -11 -10z"/>
<path d="M740 3880 c0 -5 6 -10 14 -10 8 0 17 -7 20 -16 3 -9 12 -14 20 -11 7
3 18 1 23 -4 6 -6 10 -4 10 5 0 8 -6 17 -14 20 -7 3 -13 0 -13 -7 0 -6 -7 -1
-16 11 -15 22 -44 30 -44 12z"/>
<path d="M4750 3859 c0 -5 5 -7 10 -4 6 3 10 8 10 11 0 2 -4 4 -10 4 -5 0 -10
-5 -10 -11z"/>
<path d="M1653 3831 c-7 -5 -11 -2470 -4 -2528 0 -7 11 -12 24 -11 48 2 77 -2
77 -12 0 -5 -8 -7 -17 -4 -10 4 -5 -3 10 -14 17 -11 38 -17 50 -14 12 3 19 2
16 -1 -11 -12 -54 -14 -69 -3 -13 10 -13 9 -1 -6 7 -10 10 -18 6 -18 -4 0 -2
-6 4 -13 6 -8 9 -17 6 -21 -3 -3 1 -1 7 4 10 9 10 13 -1 19 -9 6 -10 11 -2 15
6 4 11 3 11 -3 0 -5 14 -3 30 6 25 12 29 18 19 29 -8 10 -8 14 0 14 6 0 11 -5
11 -11 0 -5 4 -8 8 -5 5 3 8 -8 8 -25 0 -16 -4 -29 -8 -29 -5 0 -7 9 -3 19 5
18 3 18 -18 8 -15 -7 -23 -17 -20 -27 4 -13 4 -13 -6 0 -7 10 -11 11 -11 3 0
-19 35 -34 48 -21 8 8 16 6 29 -8 10 -11 15 -15 11 -10 -15 19 -8 28 10 15 15
-13 16 -12 3 4 -7 9 -15 32 -17 50 -3 22 -1 27 5 18 5 -8 7 -20 4 -28 -3 -7
-1 -13 5 -13 17 0 21 27 6 48 -9 14 -11 23 -4 27 6 4 9 3 8 -2 -4 -15 22 -53
37 -53 19 0 14 -42 -6 -48 -8 -2 -10 0 -4 5 16 13 16 31 -1 37 -12 5 -14 1 -9
-17 5 -17 4 -19 -4 -7 -6 8 -11 11 -11 5 1 -5 7 -18 14 -28 12 -15 15 -15 25
-3 12 14 29 15 64 1 10 -4 17 -3 17 4 0 6 -3 10 -7 10 -18 -3 -33 2 -33 10 0
6 9 8 21 6 17 -3 19 -2 9 10 -6 8 -8 20 -4 26 4 8 3 9 -4 5 -7 -4 -12 -2 -12
4 0 6 -5 8 -11 4 -8 -4 -7 -9 2 -15 11 -7 10 -9 -3 -9 -31 0 -14 34 17 35 6 0
9 9 8 18 0 12 4 16 13 13 7 -3 16 -1 19 5 4 5 3 9 -2 8 -23 -4 -35 2 -30 16 7
16 -7 27 -36 29 -11 1 -22 7 -23 14 -1 7 0 8 3 2 2 -5 9 -10 14 -10 6 0 7 5 4
10 -9 15 4 12 21 -5 18 -17 34 -20 34 -5 0 6 -5 9 -11 8 -6 -2 -14 3 -17 11
-3 9 0 11 9 7 8 -4 4 1 -9 13 -16 13 -19 22 -11 27 9 5 7 11 -6 21 -20 14 -9
18 13 5 7 -5 10 -16 6 -25 -4 -12 -1 -17 12 -17 11 0 15 4 9 8 -16 11 -15 44
1 38 7 -3 16 -1 19 5 4 5 3 9 -2 8 -23 -4 -35 2 -29 16 6 17 -19 32 -51 30
-15 -2 -20 2 -15 13 4 11 7 12 10 4 2 -7 8 -12 13 -12 6 0 7 5 4 10 -9 15 4
12 21 -5 18 -17 34 -20 34 -5 0 6 -5 9 -11 8 -6 -2 -14 3 -17 11 -3 9 0 11 9
7 8 -4 5 1 -7 11 -11 10 -20 26 -18 36 1 9 -3 17 -9 17 -5 0 -8 2 -5 5 8 8 38
-6 38 -17 0 -5 -4 -6 -10 -3 -6 3 -7 -1 -4 -9 7 -18 30 -21 39 -6 3 5 0 7 -7
5 -9 -4 -14 2 -14 15 0 12 5 19 13 16 7 -3 15 -1 18 5 4 5 3 9 -2 8 -23 -4
-35 2 -30 16 7 16 -7 27 -36 29 -11 1 -22 7 -23 14 -1 7 0 8 3 2 2 -5 9 -10
14 -10 6 0 7 5 4 10 -9 15 4 12 21 -5 18 -17 34 -20 34 -5 0 6 -5 9 -11 8 -6
-2 -14 3 -17 11 -3 9 0 11 9 7 8 -4 4 1 -9 13 -16 13 -19 22 -11 27 9 5 7 11
-6 21 -20 14 -9 18 13 5 7 -5 10 -16 6 -25 -4 -12 -1 -17 12 -17 11 0 15 4 9
8 -16 11 -15 44 1 38 7 -3 16 -1 19 5 4 5 3 9 -2 8 -23 -4 -35 2 -29 16 6 17
-19 32 -51 30 -15 -2 -20 2 -15 13 4 11 7 12 10 4 2 -7 8 -12 13 -12 6 0 7 5
4 10 -9 15 4 12 21 -5 18 -17 34 -20 34 -5 0 6 -5 9 -11 8 -6 -2 -14 3 -17 11
-3 9 0 11 9 7 8 -4 3 2 -10 13 -13 12 -20 21 -16 21 4 0 2 7 -5 15 -11 13 -11
18 0 28 10 10 12 9 7 -5 -7 -20 9 -34 17 -16 3 7 3 3 0 -9 -4 -16 -1 -23 10
-23 8 0 18 4 21 10 3 5 0 7 -8 4 -18 -7 -16 31 4 54 40 50 41 52 31 65 -8 9
-8 17 0 27 8 12 9 12 4 -2 -5 -15 18 -38 38 -38 14 0 4 19 -11 24 -15 4 -15 5
2 4 35 -1 40 2 25 12 -8 5 -12 12 -9 15 4 3 21 -8 38 -24 18 -17 34 -30 36
-30 3 -1 10 -1 15 -1 6 0 10 -5 10 -11 0 -6 -5 -7 -12 -2 -19 11 -39 13 -32 1
3 -5 9 -7 12 -4 3 3 11 1 18 -5 9 -7 15 -5 23 8 8 15 5 21 -17 31 -15 7 -38
22 -51 33 -19 16 -22 22 -12 32 9 8 11 9 9 1 -3 -14 51 -64 69 -64 6 0 19 10
27 22 l15 21 20 -24 c17 -21 23 -22 40 -12 13 8 22 9 26 2 5 -7 11 -6 21 2 11
9 17 9 29 -1 8 -7 15 -9 15 -5 0 5 9 0 20 -10 11 -10 20 -13 20 -7 0 6 -5 14
-11 18 -7 4 -1 13 15 23 14 10 24 20 21 23 -3 3 1 8 10 11 22 9 19 -1 -11 -28
-21 -19 -24 -27 -15 -44 8 -14 8 -22 -1 -27 -6 -4 -8 -3 -4 4 7 11 -12 11 -31
-1 -8 -5 -13 -3 -13 4 0 8 -4 8 -15 -1 -12 -10 -18 -10 -30 0 -12 10 -15 10
-15 -1 0 -12 -2 -12 -9 -1 -6 10 -10 9 -14 -7 -3 -14 -1 -19 6 -14 19 11 91
10 99 -1 5 -7 8 -7 8 2 0 7 4 11 9 7 5 -3 17 3 27 12 11 11 13 18 5 21 -6 2
-11 11 -11 19 0 11 5 8 19 -8 16 -20 21 -21 34 -10 9 7 13 20 10 29 -4 14 -3
15 5 2 8 -10 8 -18 0 -27 -15 -19 2 -16 26 5 18 15 19 15 8 0 -12 -15 -11 -17
7 -15 12 1 21 3 21 5 0 13 -33 62 -41 62 -8 0 -7 -5 1 -15 9 -10 9 -15 1 -15
-6 0 -11 4 -11 8 0 5 -10 13 -22 19 -19 8 -20 10 -4 16 10 4 15 3 11 -3 -8
-13 1 -13 26 0 11 6 19 7 18 3 -4 -22 3 -25 17 -7 15 18 15 18 5 -3 -12 -23 3
-73 21 -73 11 0 6 33 -7 42 -5 4 -6 10 -2 14 11 11 36 -28 29 -46 -4 -12 -2
-13 9 -2 18 16 32 15 26 -2 -7 -19 15 -37 32 -27 7 5 25 6 39 4 57 -8 82 -7
82 5 0 13 -34 11 -42 -2 -5 -7 -8 -7 -8 2 0 7 -5 10 -12 6 -6 -4 -9 -3 -6 2 3
5 0 14 -6 20 -14 13 -51 -7 -38 -21 4 -5 2 -5 -5 -2 -6 4 -14 1 -16 -5 -4 -8
-6 -7 -6 4 -1 9 8 20 19 23 11 3 20 10 20 15 0 5 12 8 28 6 15 -1 36 2 47 8
35 18 48 16 30 -4 -10 -11 -24 -16 -33 -12 -15 5 -15 4 -3 -12 10 -12 17 -14
25 -6 5 5 15 10 21 10 5 0 3 -5 -5 -10 -12 -8 -10 -10 9 -10 23 0 23 -1 7 -13
-16 -12 -16 -13 3 -13 11 0 17 4 14 9 -3 5 0 7 8 5 8 -3 13 -11 11 -17 -1 -6
3 -10 9 -9 6 2 16 -6 22 -16 7 -11 22 -31 35 -45 12 -15 25 -34 28 -43 3 -10
10 -18 15 -18 5 0 9 -4 9 -10 0 -5 10 -21 23 -36 12 -14 22 -29 21 -32 0 -4 8
-16 18 -26 9 -10 15 -23 12 -28 -3 -5 -2 -7 3 -6 4 2 8 1 8 -2 0 -3 12 -19 27
-35 15 -16 25 -32 22 -37 -3 -4 -1 -8 4 -8 6 0 27 -26 48 -57 21 -32 43 -64
50 -70 7 -7 22 -29 35 -50 13 -21 28 -41 35 -45 6 -4 17 -21 24 -38 7 -16 17
-30 22 -30 6 0 7 -7 4 -16 -3 -8 -2 -12 3 -9 6 3 14 -2 19 -10 5 -10 24 -17
49 -18 23 -1 39 -4 37 -6 -2 -3 5 -14 16 -26 18 -19 19 -23 6 -28 -8 -3 -24
-4 -36 -2 -12 2 -18 0 -14 -6 3 -6 8 -8 11 -5 10 10 44 -15 37 -26 -4 -7 -3
-8 4 -4 7 4 12 3 12 -1 0 -5 11 -9 24 -9 14 0 22 4 20 8 -3 4 3 8 12 8 10 0
14 3 11 6 -3 4 -2 15 3 25 7 13 6 22 -6 33 -8 9 -10 16 -4 16 6 0 13 -7 16
-15 4 -8 11 -12 17 -8 6 4 7 1 1 -8 -5 -8 -9 -27 -10 -43 -2 -26 -1 -28 9 -10
6 10 11 25 12 33 0 8 6 15 13 17 7 1 8 0 2 -3 -15 -7 -12 -23 4 -17 8 3 17 0
21 -6 6 -9 9 -9 15 0 6 10 12 10 26 0 17 -10 17 -11 1 -6 -10 3 -16 2 -12 -3
6 -11 -21 -9 -31 2 -12 11 -24 8 -22 -5 2 -7 -3 -12 -9 -10 -7 1 -13 -2 -13
-8 0 -13 17 -13 25 0 3 6 11 10 16 10 6 0 8 -4 5 -8 -2 -4 6 -8 19 -8 13 0 21
4 18 9 -3 5 4 6 15 3 11 -4 23 -2 27 4 4 6 12 7 19 3 7 -4 5 -1 -4 7 -9 9 -16
23 -14 31 1 9 -2 23 -7 30 -6 10 -9 10 -9 2 0 -7 -7 -10 -15 -7 -8 4 -15 10
-15 16 0 5 4 7 9 3 5 -3 12 -1 15 4 4 5 -2 8 -11 6 -10 -2 -22 -4 -26 -4 -4
-1 -3 -10 3 -21 6 -11 15 -18 20 -15 5 3 11 1 14 -4 11 -17 -12 -22 -26 -6
-38 43 -46 56 -30 54 33 -6 47 33 16 45 -9 4 -14 9 -12 12 3 3 -7 19 -23 36
-15 17 -26 35 -23 40 3 4 1 8 -4 8 -11 0 -55 60 -55 76 0 7 -3 13 -6 12 -19
-2 -24 4 -11 12 11 7 12 10 2 10 -16 0 -51 39 -52 58 0 6 -5 12 -12 12 -6 0
-9 2 -6 5 3 3 -8 20 -23 36 -16 17 -27 35 -24 39 3 4 -2 11 -11 14 -9 4 -14
13 -10 22 3 8 2 13 -3 9 -10 -5 -81 85 -81 103 0 5 -7 13 -16 16 -9 4 -14 13
-10 22 3 8 2 12 -4 9 -11 -7 -32 29 -22 40 4 5 3 6 -3 3 -5 -3 -21 8 -35 25
-14 17 -18 27 -10 22 8 -5 -2 8 -22 29 -21 21 -35 43 -32 47 3 5 -1 9 -8 9
-10 0 -10 2 1 9 11 7 10 13 -8 32 -12 13 -20 28 -17 34 2 5 -4 19 -13 30 -12
15 -13 17 -1 9 18 -13 50 -14 50 -2 0 4 5 8 11 8 8 0 8 -5 -1 -15 -7 -8 -16
-13 -20 -10 -4 3 -11 -2 -14 -11 -10 -25 -7 -27 17 -11 21 13 24 12 41 -10 23
-30 34 -23 12 9 -9 12 -16 29 -15 38 0 10 3 9 9 -5 5 -11 9 -14 9 -7 1 10 4
10 16 -2 8 -8 15 -18 15 -22 0 -3 -7 -1 -15 6 -8 7 -15 8 -15 2 0 -19 26 -32
38 -20 7 7 12 8 12 2 0 -5 8 -19 18 -31 17 -23 17 -23 19 17 1 23 -2 38 -8 34
-5 -3 -7 -9 -4 -14 3 -5 0 -12 -7 -16 -7 -4 -10 -3 -5 1 4 5 0 17 -9 27 -13
14 -14 21 -5 32 13 16 51 18 51 3 0 -5 -6 -7 -13 -4 -19 7 -41 -8 -32 -23 6
-9 10 -9 16 1 8 11 12 10 24 -5 8 -10 12 -22 10 -26 -2 -4 2 -7 10 -7 8 0 11
5 7 11 -10 17 -13 46 -4 46 13 0 33 50 25 63 -3 7 3 4 15 -7 18 -15 24 -16 37
-6 8 7 12 16 9 21 -3 5 0 9 6 9 7 0 9 -7 6 -16 -5 -12 -2 -15 10 -10 9 4 24 1
32 -6 10 -8 13 -9 9 -2 -4 7 0 15 9 18 9 3 12 11 8 18 -5 8 -2 9 9 5 12 -4 14
-2 10 10 -5 12 -3 14 7 8 8 -5 11 -4 6 3 -3 5 0 13 6 15 9 4 10 6 1 6 -6 1
-14 -3 -18 -9 -3 -5 -13 -6 -22 -3 -12 5 -15 2 -11 -8 3 -8 0 -23 -7 -32 -12
-16 -13 -16 -18 2 -3 12 0 18 7 15 8 -3 12 6 11 23 0 15 5 38 13 49 11 19 10
24 -3 38 -9 9 -11 16 -5 16 6 0 13 -7 16 -15 4 -8 11 -12 17 -8 6 4 1 -7 -11
-24 -18 -26 -20 -33 -8 -42 10 -8 16 -9 21 -1 3 5 1 10 -5 10 -6 0 -3 11 7 26
l17 26 17 -23 c10 -13 15 -28 12 -33 -3 -5 -1 -6 6 -2 8 6 9 12 2 20 -6 7 -8
16 -5 19 4 3 -15 20 -42 36 -26 17 -44 31 -38 31 5 0 26 -11 45 -25 20 -13 40
-21 44 -17 5 4 5 1 1 -5 -4 -7 -2 -13 4 -13 6 0 8 -5 4 -12 -4 -7 -3 -8 5 -4
17 11 0 34 -43 60 -33 20 -36 24 -20 30 10 4 15 4 11 0 -4 -4 2 -14 14 -22 30
-21 34 -8 6 22 -18 19 -26 23 -35 14 -9 -9 -12 -9 -12 0 0 7 5 12 11 12 8 0 7
6 -2 18 -12 14 -11 14 8 -2 21 -18 23 -18 51 3 22 15 32 17 40 9 8 -8 12 -8
12 -1 0 19 -25 34 -37 22 -25 -25 -43 28 -20 58 5 7 5 18 1 24 -5 8 -3 9 5 5
7 -5 10 -14 7 -22 -3 -8 -1 -14 4 -14 6 0 10 -5 10 -11 0 -8 -4 -8 -14 0 -11
9 -13 6 -13 -14 0 -25 0 -25 24 -9 14 9 23 12 20 8 -3 -5 1 -15 9 -22 8 -7 14
-9 14 -5 0 4 8 -1 16 -12 16 -20 16 -19 9 4 -6 18 -4 22 6 16 8 -5 11 -5 7 0
-4 4 -3 16 3 27 9 18 8 18 -10 8 -12 -6 -21 -13 -21 -16 0 -3 6 -2 13 2 9 5 9
3 -1 -7 -11 -12 -14 -12 -22 1 -5 8 -10 20 -10 25 0 6 5 3 10 -5 9 -14 14 -7
11 13 -1 5 3 6 9 2 5 -3 10 1 10 10 0 13 -4 14 -22 4 -13 -7 -27 -17 -31 -23
-6 -7 -7 -5 -4 6 3 9 3 19 -1 21 -4 2 -1 2 6 0 7 -1 23 2 34 8 17 9 18 13 7
20 -19 12 -32 11 -24 -1 3 -5 1 -10 -4 -10 -20 0 -11 17 17 36 25 16 26 16 13
0 -13 -16 -13 -18 0 -16 34 5 43 0 24 -13 -14 -11 -15 -16 -5 -22 8 -5 11 -4
6 3 -3 5 0 12 6 14 7 3 13 13 13 24 0 10 6 18 13 16 17 -3 15 15 -3 22 -12 4
-14 10 -5 25 7 14 7 22 -2 27 -7 4 -8 3 -4 -4 5 -8 2 -10 -8 -6 -9 3 -16 1
-16 -6 0 -6 5 -8 10 -5 6 3 10 2 10 -3 0 -5 -15 -9 -32 -9 -18 -1 -27 2 -19 4
7 3 22 14 32 24 10 10 25 16 33 13 8 -3 17 0 22 7 4 7 3 10 -3 6 -6 -4 -22 2
-36 13 -33 26 -45 26 -22 0 25 -28 13 -25 -19 5 -15 14 -22 25 -16 25 6 0 8 5
4 12 -4 7 6 2 23 -10 31 -22 32 -22 38 -2 4 11 11 18 16 15 5 -3 6 2 2 11 -4
10 -2 15 4 11 5 -3 10 0 10 8 0 8 -4 12 -9 9 -14 -9 -9 9 9 28 14 15 14 19 3
16 -9 -2 -14 3 -12 11 2 11 0 12 -10 4 -9 -8 -18 -8 -31 2 -15 11 -16 13 -2
19 8 3 15 11 15 17 0 8 -4 8 -15 -1 -10 -9 -15 -9 -15 -1 0 6 5 11 11 11 5 0
7 5 4 10 -3 6 0 10 7 10 10 0 10 2 -1 9 -7 5 -11 13 -7 19 3 6 -2 15 -11 21
-11 6 -13 11 -5 11 7 0 10 5 6 12 -4 6 -3 8 3 5 6 -4 14 0 17 9 4 11 2 15 -8
11 -11 -4 -13 -1 -9 11 6 14 4 15 -9 4 -13 -10 -18 -10 -24 -1 -4 7 -3 9 4 5
6 -3 13 -2 17 4 4 7 12 7 25 0 16 -9 18 -7 14 12 -3 13 -6 29 -6 36 -1 6 -5
12 -10 12 -11 0 -6 -33 6 -42 5 -3 -2 -5 -16 -5 -18 2 -24 6 -20 16 3 8 1 12
-5 8 -6 -4 -9 1 -8 11 3 29 17 52 27 46 6 -4 5 -10 -3 -15 -10 -6 -8 -8 7 -7
11 1 21 8 21 14 0 7 -5 12 -11 11 -6 -1 -11 8 -10 19 1 18 -4 21 -26 20 -27
-2 -35 14 -15 31 4 4 5 3 2 -3 -3 -6 0 -11 8 -11 11 0 12 3 3 14 -6 8 -17 12
-25 9 -8 -3 -11 -1 -8 4 3 6 0 10 -7 10 -9 0 -9 3 2 10 13 8 13 11 1 22 -11
11 -13 11 -6 -1 6 -10 4 -12 -4 -7 -7 5 -10 14 -7 21 3 8 2 15 -3 17 -4 2 -24
34 -45 71 -71 128 -210 255 -360 327 -87 42 -234 85 -325 96 -31 3 -60 9 -66
12 -13 8 -1121 11 -1132 3z m278 -254 c-10 -9 -11 -8 -5 6 3 10 9 15 12 12 3
-3 0 -11 -7 -18z m39 13 c0 -5 -5 -10 -11 -10 -5 0 -7 5 -4 10 3 6 8 10 11 10
2 0 4 -4 4 -10z m103 -16 c9 -1 17 3 17 7 0 5 5 9 11 9 8 0 8 -5 -1 -15 -7 -8
-16 -13 -20 -10 -4 3 -17 -10 -28 -27 -16 -24 -18 -35 -9 -41 8 -6 6 -7 -6 -3
-10 3 -15 2 -12 -4 3 -5 -3 -7 -14 -5 -15 3 -19 -2 -18 -16 1 -16 4 -17 12 -7
18 22 73 31 94 14 11 -8 13 -8 8 0 -4 7 2 12 18 12 14 0 22 -5 19 -10 -4 -6 3
-5 14 1 30 16 36 14 21 -6 -12 -16 -12 -17 2 -6 9 7 20 9 24 5 5 -4 5 -1 1 6
-4 6 -2 12 3 12 6 0 11 -6 11 -12 0 -9 3 -9 9 1 12 19 54 23 47 4 -3 -7 0 -13
5 -13 6 0 9 9 6 19 -3 11 1 22 9 25 7 3 12 11 10 18 -1 7 -1 10 1 5 3 -4 8 -5
13 -2 5 3 16 -2 25 -11 9 -9 19 -13 23 -9 4 4 -3 15 -14 24 -22 17 -22 18 -2
42 l19 24 -12 -24 c-10 -21 -9 -27 9 -42 12 -9 18 -19 15 -23 -4 -3 -1 -6 5
-6 7 0 12 6 13 13 0 9 2 9 6 -1 2 -6 9 -9 14 -6 6 3 6 11 -2 20 -6 7 -15 11
-20 8 -5 -3 -9 0 -9 5 0 16 14 13 39 -8 20 -17 20 -19 4 -26 -10 -5 -21 -9
-25 -9 -4 -1 -13 -7 -20 -15 -11 -12 -10 -12 2 -5 24 14 51 12 46 -3 -3 -7 0
-13 5 -13 6 0 9 9 6 19 -3 11 1 22 9 25 7 3 12 11 10 18 -1 7 -1 10 1 5 3 -4
8 -5 13 -2 5 3 16 -2 25 -11 9 -9 19 -13 23 -9 4 4 -3 15 -14 24 -22 17 -22
18 -2 42 l19 24 -12 -24 c-10 -21 -9 -27 9 -42 12 -9 19 -19 16 -22 -3 -2 7
-4 21 -4 14 0 25 2 25 4 0 10 -28 32 -34 26 -3 -4 -6 -1 -6 5 0 17 15 15 32
-5 22 -26 33 -47 21 -40 -6 4 -21 -6 -34 -21 -18 -20 -19 -22 -3 -9 22 18 40
22 47 10 2 -5 2 -2 1 5 -4 14 12 16 21 2 3 -5 13 -6 23 -3 15 6 16 5 2 -13
-14 -17 -13 -18 1 -7 9 7 20 9 24 5 5 -4 5 -1 1 6 -4 6 -2 12 3 12 6 0 11 -6
11 -12 0 -8 3 -9 8 -3 11 16 46 19 36 3 -4 -7 2 -5 13 5 23 20 40 23 24 4 -8
-10 -7 -14 4 -14 8 0 12 4 9 9 -3 4 5 6 18 5 13 -2 23 -9 23 -15 0 -6 4 -14 9
-19 5 -4 6 -3 2 4 -3 6 -2 14 4 18 5 3 10 0 10 -7 0 -10 3 -9 11 2 8 11 12 12
16 3 2 -7 9 -13 14 -13 6 0 8 4 5 9 -3 5 1 11 9 15 8 3 17 0 21 -6 5 -7 2 -8
-7 -3 -12 8 -12 6 0 -9 10 -11 17 -14 24 -7 7 7 15 7 23 0 7 -6 26 -11 43 -11
24 -1 28 -4 20 -14 -7 -9 -6 -14 2 -20 8 -4 9 -3 5 4 -4 7 -2 12 4 12 7 0 9 7
6 17 -4 10 -4 14 0 10 4 -4 17 1 28 10 20 17 20 17 6 -1 -13 -17 -13 -19 0
-14 19 7 52 -10 45 -22 -3 -6 -1 -18 5 -27 10 -17 10 -17 8 1 -2 10 4 21 12
23 13 4 13 3 0 -6 -10 -7 -11 -11 -2 -11 6 0 14 1 16 3 11 6 44 -37 39 -51 -5
-12 -2 -14 12 -8 11 4 16 4 12 0 -4 -4 2 -13 13 -21 11 -8 20 -21 20 -29 0 -8
3 -14 8 -14 15 0 58 -108 73 -185 14 -75 12 -232 -5 -305 -31 -130 -104 -245
-209 -323 -61 -46 -173 -97 -246 -113 -141 -29 -203 -33 -558 -33 -363 0 -372
1 -361 19 9 14 16 16 25 8 9 -7 13 -7 13 1 0 6 -4 11 -8 11 -14 0 -7 86 7 104
9 11 10 16 2 16 -7 0 -10 10 -7 25 3 14 1 23 -4 20 -4 -3 -11 1 -14 7 -3 9 -9
7 -20 -6 -9 -11 -16 -15 -16 -10 0 6 5 15 12 22 9 9 7 13 -5 18 -9 3 -17 11
-17 16 0 6 6 5 15 -2 10 -8 15 -9 15 -1 0 6 -9 16 -20 23 -11 7 -20 17 -20 22
0 4 6 3 14 -3 7 -6 22 -9 32 -5 16 5 17 4 4 -6 -11 -9 -12 -13 -2 -17 6 -2 10
-8 8 -12 -3 -4 -1 -13 4 -21 8 -12 11 -13 22 -2 7 8 9 13 3 12 -22 -5 -29 1
-15 10 10 6 11 10 3 10 -7 0 -13 4 -13 10 0 5 8 7 18 3 11 -4 8 1 -8 14 -13
11 -31 18 -39 15 -9 -3 -12 -1 -7 7 4 6 15 10 23 9 10 -2 17 5 18 19 1 12 -2
20 -7 17 -4 -3 -8 0 -8 6 0 6 -5 8 -11 4 -8 -5 -8 -8 0 -13 6 -4 -3 -14 -22
-25 -32 -17 -32 -17 -10 2 12 11 20 22 17 24 -2 3 2 11 10 17 15 12 11 45 -4
36 -4 -3 -15 6 -23 18 -15 23 -14 24 12 22 15 -1 33 -5 41 -10 9 -6 11 -4 5 5
-6 10 -4 12 8 7 10 -4 14 -2 11 7 -3 7 -11 13 -19 13 -8 0 -11 -5 -8 -10 3 -6
1 -7 -6 -3 -6 4 -9 12 -6 17 8 13 -9 11 -22 -2 -6 -6 -16 -8 -22 -5 -12 8 -3
36 11 36 6 0 5 -6 -2 -15 -15 -18 1 -20 18 -3 9 9 9 15 -1 27 -10 12 -9 13 2
6 11 -6 13 -4 8 9 -4 10 -3 15 3 11 22 -14 8 16 -14 30 -28 19 -43 47 -21 38
8 -3 13 -9 10 -13 -3 -5 4 -8 15 -7 23 2 26 15 5 23 -8 4 -15 10 -15 16 0 5 5
6 10 3 6 -3 10 0 10 7 0 10 2 10 9 -1 5 -7 8 -28 6 -47 -1 -18 1 -31 5 -29 4
3 7 15 6 27 -1 13 4 31 12 41 10 11 11 17 3 17 -7 0 -10 10 -7 25 3 14 1 23
-4 20 -4 -3 -11 1 -14 7 -3 9 -9 7 -20 -6 -9 -11 -16 -15 -16 -9 0 7 5 15 12
19 7 5 5 12 -8 22 -18 14 -18 14 -1 8 13 -4 17 -2 14 6 -2 7 -10 12 -16 10 -7
-1 -10 2 -6 8 3 5 2 10 -3 10 -6 0 -13 8 -16 17 -6 15 -5 15 13 -1 11 -10 24
-15 30 -12 5 4 13 1 17 -5 4 -8 3 -9 -4 -5 -7 4 -12 2 -12 -3 0 -6 5 -11 11
-11 5 0 8 -4 5 -8 -2 -4 -1 -14 4 -22 8 -13 11 -13 22 -1 8 9 9 11 1 7 -6 -3
-14 -2 -18 4 -3 5 0 10 7 10 10 0 9 3 -2 11 -12 9 -11 10 8 6 12 -3 20 -1 16
4 -3 5 -11 9 -19 9 -10 0 -13 11 -12 39 1 22 -1 37 -5 35 -5 -3 -8 0 -8 6 0 6
-4 8 -10 5 -5 -3 -10 -11 -10 -16 0 -6 4 -8 9 -5 5 4 8 -2 6 -11 -2 -10 -4
-21 -4 -25 -1 -5 -6 -8 -12 -8 -8 0 -8 4 0 14 8 10 9 16 1 21 -5 3 -10 1 -10
-4 0 -6 -5 -11 -11 -11 -6 0 -1 13 11 30 12 16 24 29 28 29 21 -3 32 2 26 12
-4 7 -9 8 -13 1 -4 -7 -13 -6 -24 3 -17 12 -15 13 17 11 20 -2 39 1 42 6 3 5
2 8 -3 7 -23 -4 -35 2 -30 16 7 16 -7 27 -36 29 -11 1 -22 7 -23 14 -1 7 0 8
3 2 2 -5 9 -10 14 -10 6 0 7 5 4 10 -9 15 4 12 21 -5 18 -17 34 -20 34 -5 0 5
-5 9 -11 8 -6 -2 -14 3 -17 11 -3 9 0 11 9 7 8 -4 4 1 -9 13 -16 13 -19 22
-11 27 9 5 6 11 -7 22 -16 13 -17 14 -1 9 9 -4 17 -2 17 4 0 6 4 8 9 4 5 -3
13 -1 16 5 4 6 3 10 -2 9 -4 -1 -16 1 -26 6 -14 6 -15 10 -6 21 6 8 8 14 4 14
-4 0 -1 7 6 16 12 15 11 16 -11 10 -18 -5 -21 -5 -10 3 8 5 11 13 7 18 -5 4
-18 -3 -29 -17 l-20 -25 15 26 c16 27 17 45 4 67 -11 16 -1 31 21 30 9 0 25 3
35 7 9 4 17 3 17 -1 -1 -13 -26 -44 -35 -44 -4 0 -2 6 4 14 9 11 6 14 -13 14
-22 0 -24 -3 -15 -19 5 -11 7 -19 3 -19 -3 0 -1 -7 6 -15 17 -20 49 -13 71 16
24 31 24 43 -3 63 l-23 17 25 -13 c14 -7 33 -13 43 -14z m92 -25 c8 -14 12
-29 8 -32 -3 -3 4 -5 16 -4 23 1 28 13 9 20 -7 3 0 4 15 3 16 -2 32 -9 37 -16
5 -7 10 -8 14 -2 9 15 -23 36 -57 37 -17 0 -31 6 -33 13 -1 7 0 8 3 2 2 -5 9
-10 14 -10 6 0 7 5 3 12 -4 7 -3 8 4 4 7 -4 12 -3 12 2 0 6 8 13 17 16 14 6
14 3 -3 -15 -15 -18 -16 -21 -3 -17 9 4 28 -4 43 -17 25 -22 24 -28 -9 -35 -5
-1 -16 -7 -24 -13 -12 -9 -13 -9 -7 1 8 13 -6 17 -18 5 -11 -11 -50 -11 -63
-1 -9 7 -13 6 -13 -3 0 -10 -3 -10 -12 -1 -14 14 -32 16 -23 3 3 -6 -4 -8 -16
-6 -27 5 -33 11 -24 24 10 18 28 12 21 -6 -6 -17 -5 -17 7 -1 8 10 17 15 20
11 4 -3 7 -1 7 5 0 7 5 12 11 12 8 0 8 -5 -1 -15 -8 -10 -9 -15 -2 -15 6 0 16
8 21 18 6 9 11 11 11 5 0 -7 4 -13 10 -13 6 0 5 10 -2 25 -6 14 -15 25 -19 25
-4 0 -10 7 -13 16 -10 27 22 -4 39 -37z m105 36 c-7 -9 -15 -13 -19 -10 -3 3
1 10 9 15 21 14 24 12 10 -5z m62 6 c-8 -4 -13 -12 -12 -17 1 -5 -4 -10 -12
-12 -9 -2 -8 0 2 7 8 6 11 11 7 11 -5 0 -5 5 -2 10 3 6 12 10 18 10 8 0 8 -3
-1 -9z m98 -6 c-7 -9 -15 -13 -19 -10 -3 3 1 10 9 15 21 14 24 12 10 -5z m62
6 c-8 -4 -13 -12 -12 -17 1 -5 -4 -10 -12 -12 -9 -2 -8 0 2 7 8 6 11 11 7 11
-5 0 -5 5 -2 10 3 6 12 10 18 10 8 0 8 -3 -1 -9z m75 3 c-3 -3 -12 -4 -19 -1
-8 3 -5 6 6 6 11 1 17 -2 13 -5z m29 -9 c-8 -8 -18 -15 -22 -15 -3 0 -1 7 6
15 7 8 17 15 22 15 5 0 3 -7 -6 -15z m94 -7 c0 -11 -28 -10 -35 1 -3 6 4 9 15
8 11 -1 20 -5 20 -9z m15 -14 c-15 -24 -16 -28 -1 -42 8 -9 19 -12 23 -8 5 5
2 11 -4 13 -15 5 -17 23 -4 23 5 0 12 -9 16 -19 4 -13 12 -18 21 -14 11 4 12
8 4 13 -6 4 3 7 20 7 17 0 26 -4 19 -7 -7 -5 -8 -10 -1 -14 6 -3 17 3 26 15
16 23 41 17 32 -8 -5 -11 -2 -13 9 -9 9 3 13 2 10 -4 -3 -6 -1 -10 4 -10 6 0
11 7 11 15 0 8 -5 15 -11 15 -5 0 -8 4 -5 9 4 5 0 11 -6 14 -7 3 -4 5 8 4 12
-1 21 -6 21 -12 -1 -40 3 -47 18 -35 9 7 15 8 15 2 0 -21 -74 -36 -97 -19 -7
5 -13 6 -13 3 0 -4 -10 0 -21 8 -23 16 -53 11 -42 -8 4 -6 -1 -5 -10 3 -9 7
-17 9 -17 4 0 -5 -7 -10 -15 -10 -8 0 -12 4 -9 9 3 4 1 8 -5 8 -5 0 -12 -4
-15 -8 -11 -18 -50 -4 -72 24 -17 22 -20 33 -13 44 9 13 10 13 6 -1 -6 -20 27
-66 37 -50 4 6 2 11 -5 11 -7 0 -9 3 -6 6 4 4 18 -1 32 -10 14 -9 25 -12 25
-7 0 15 -41 40 -56 34 -8 -3 -14 0 -14 5 0 11 20 10 52 -3 11 -4 20 0 28 14 6
12 13 21 17 21 3 0 -2 -12 -12 -26z m59 14 c-3 -5 -10 -6 -15 -3 -5 4 -9 2 -9
-4 0 -5 6 -12 13 -14 9 -4 9 -6 0 -6 -14 -1 -26 16 -19 27 3 5 12 9 20 9 8 0
13 -4 10 -9z m-387 -20 c-3 -8 -6 -5 -6 6 -1 11 2 17 5 13 3 -3 4 -12 1 -19z
m160 0 c-3 -8 -6 -5 -6 6 -1 11 2 17 5 13 3 -3 4 -12 1 -19z m257 7 c-7 -16
-24 -21 -24 -6 0 8 7 13 27 20 1 1 0 -6 -3 -14z m30 0 c-4 -8 -11 -15 -16 -15
-6 0 -5 6 2 15 7 8 14 15 16 15 2 0 1 -7 -2 -15z m-794 -10 c0 -8 -4 -15 -10
-15 -5 0 -7 7 -4 15 4 8 8 15 10 15 2 0 4 -7 4 -15z m110 -2 c0 -3 -7 -3 -15
0 -8 4 -17 2 -20 -3 -4 -6 -14 -10 -23 -10 -12 0 -10 4 8 13 23 12 50 12 50 0z
m150 2 c0 -8 -2 -15 -4 -15 -2 0 -6 7 -10 15 -3 8 -1 15 4 15 6 0 10 -7 10
-15z m160 0 c0 -8 -2 -15 -4 -15 -2 0 -6 7 -10 15 -3 8 -1 15 4 15 6 0 10 -7
10 -15z m490 -15 c-18 -12 -30 -13 -30 -2 0 4 10 9 22 9 18 2 20 0 8 -7z
m-920 -20 c0 -5 -4 -10 -10 -10 -5 0 -10 5 -10 10 0 6 5 10 10 10 6 0 10 -4
10 -10z m935 -10 c-4 -11 -2 -20 4 -20 6 0 11 6 11 13 1 6 9 2 19 -10 l19 -22
6 21 c3 12 8 19 11 16 9 -8 -13 -48 -25 -48 -6 0 -10 7 -10 15 0 8 -5 15 -11
15 -5 0 -7 -6 -3 -12 4 -7 4 -10 -1 -6 -4 4 -13 4 -19 -1 -8 -7 -11 1 -12 25
0 19 4 34 8 34 5 0 6 -9 3 -20z m45 10 c8 -5 11 -10 5 -10 -5 0 -17 5 -25 10
-8 5 -10 10 -5 10 6 0 17 -5 25 -10z m68 -45 c-2 -1 -13 -8 -26 -14 -22 -12
-23 -11 -13 8 7 12 17 18 27 14 8 -3 14 -7 12 -8z m-1108 -32 c0 -5 -5 -15
-10 -23 -7 -11 -5 -17 8 -22 16 -6 16 -7 0 -7 -22 -1 -32 17 -19 33 6 7 8 16
4 19 -3 4 -1 7 5 7 7 0 12 -3 12 -7z m-26 -83 c-6 -6 -10 -3 -10 10 0 13 4 16
10 10 7 -7 7 -13 0 -20z m26 -3 c0 -2 -9 -14 -20 -27 -11 -13 -20 -19 -20 -15
0 5 7 17 17 27 15 17 23 22 23 15z m7 -43 c-3 -3 -12 -4 -19 -1 -8 3 -5 6 6 6
11 1 17 -2 13 -5z m-24 -64 c9 -11 13 -20 7 -20 -5 0 -14 9 -20 20 -6 11 -9
20 -8 20 2 0 11 -9 21 -20z m43 -12 c0 -10 -1 -18 -1 -18 0 0 -8 9 -17 19 -16
18 -15 20 1 18 9 0 17 -9 17 -19z m-52 -24 c3 -8 2 -12 -4 -9 -6 3 -10 10 -10
16 0 14 7 11 14 -7z m16 -29 c-7 -8 -18 -15 -24 -15 -6 0 -2 7 8 15 25 19 32
19 16 0z m1710 0 c0 -1 -9 -10 -19 -19 -19 -17 -19 -17 -16 1 2 10 4 21 4 25
1 6 31 0 31 -7z m-1715 -155 c-3 -5 -12 -10 -18 -10 -7 0 -6 4 3 10 19 12 23
12 15 0z m-8 -51 c0 -21 -3 -26 -9 -16 -4 9 -5 22 -2 31 9 23 11 20 11 -15z
m59 -4 l3 -30 -14 25 c-18 31 -19 43 -4 38 7 -2 13 -17 15 -33z m-26 5 c0 -5
-4 -10 -10 -10 -5 0 -10 5 -10 10 0 6 5 10 10 10 6 0 10 -4 10 -10z m1682 -42
c-8 -8 -9 -4 -5 13 4 13 8 18 11 10 2 -7 -1 -18 -6 -23z m-1702 -63 c0 -8 -4
-15 -10 -15 -5 0 -7 7 -4 15 4 8 8 15 10 15 2 0 4 -7 4 -15z m1698 -11 c0 -17
-3 -22 -8 -13 -5 6 -6 18 -3 26 8 19 11 16 11 -13z m40 -6 c9 -9 12 -9 12 1 0
7 5 9 10 6 6 -4 4 -12 -5 -21 -17 -18 -20 -38 -4 -28 8 4 8 0 0 -15 -13 -23
-13 -23 -35 -15 -9 3 -16 13 -16 21 0 8 -5 11 -12 7 -7 -5 -8 -3 -3 6 6 10 12
7 26 -11 10 -13 21 -20 26 -15 4 5 2 11 -5 13 -6 3 -10 9 -6 14 3 5 0 9 -5 9
-6 0 -11 5 -11 11 0 8 5 8 15 -1 10 -8 15 -9 15 -2 0 6 -8 16 -17 21 -10 6
-13 11 -7 11 5 0 15 -5 22 -12z m-38 -139 c13 -9 12 -10 -2 -5 -10 3 -20 1
-23 -4 -4 -6 2 -10 11 -10 10 0 15 -3 11 -6 -12 -12 -37 5 -31 21 7 18 14 19
34 4z m-1700 -14 c-7 -8 -18 -15 -24 -15 -6 0 -2 7 8 15 25 19 32 19 16 0z
m1670 -43 c0 -5 -7 -9 -15 -9 -8 0 -12 4 -9 9 3 4 9 8 15 8 5 0 9 -4 9 -8z
m11 -25 c-10 -9 -11 -8 -5 6 3 10 9 15 12 12 3 -3 0 -11 -7 -18z m69 14 c2 -1
-1 -6 -7 -12 -9 -9 -16 -8 -28 5 -15 15 -15 16 7 12 13 -3 25 -5 28 -5z m-90
-22 c0 -5 -4 -7 -10 -4 -5 3 -10 1 -10 -6 0 -7 -3 -10 -6 -6 -8 7 4 27 17 27
5 0 9 -5 9 -11z m-1665 -79 c-3 -5 -12 -10 -18 -10 -7 0 -6 4 3 10 19 12 23
12 15 0z m-8 -51 c0 -21 -3 -26 -9 -16 -4 9 -5 22 -2 31 9 23 11 20 11 -15z
m58 0 c2 -13 0 -28 -4 -34 -3 -5 -6 -25 -6 -44 0 -31 -41 -98 -53 -86 -2 2 5
14 17 26 26 28 27 45 2 58 -23 13 -37 43 -16 34 8 -3 13 -9 10 -13 -3 -5 4 -8
15 -7 23 2 26 15 5 23 -8 4 -15 10 -15 16 0 5 4 7 9 4 12 -8 22 20 14 40 -4
11 -2 15 7 12 7 -2 14 -15 15 -29z m-25 1 c0 -5 -4 -10 -10 -10 -5 0 -10 5
-10 10 0 6 5 10 10 10 6 0 10 -4 10 -10z m1578 -17 c2 -7 -1 -13 -8 -13 -6 0
-9 4 -5 9 3 5 -3 12 -12 15 -15 4 -15 5 1 3 11 -1 21 -8 24 -14z m-58 -53 c0
-5 -5 -10 -11 -10 -5 0 -7 5 -4 10 3 6 8 10 11 10 2 0 4 -4 4 -10z m-1540 -35
c0 -8 -4 -15 -10 -15 -5 0 -7 7 -4 15 4 8 8 15 10 15 2 0 4 -7 4 -15z m1500
-26 c0 -14 -17 -10 -23 5 -4 10 -1 13 9 9 7 -3 14 -9 14 -14z m5 -37 c-15 -16
-16 -15 -4 12 7 15 15 23 17 16 3 -7 -3 -19 -13 -28z m-25 6 c0 -6 -6 -5 -15
2 -8 7 -15 14 -15 16 0 2 7 1 15 -2 8 -4 15 -11 15 -16z m-30 -8 c13 -9 13
-10 0 -10 -13 0 -13 -1 0 -10 12 -8 10 -10 -9 -8 -13 2 -26 -3 -28 -10 -3 -8
2 -10 14 -6 14 5 15 4 3 -4 -8 -6 -17 -9 -21 -6 -9 5 -8 43 1 42 3 0 12 0 20
1 13 1 13 2 0 11 -8 5 -10 10 -5 10 6 0 17 -5 25 -10z m41 -24 c5 3 9 0 9 -6
0 -15 -23 -7 -26 8 -1 7 0 8 3 2 2 -5 9 -8 14 -4z m-107 -21 c-4 -8 -1 -15 5
-15 6 0 11 -5 11 -11 0 -8 -5 -8 -15 1 -12 10 -16 10 -19 -1 -14 -43 -14 -44
-15 -26 -1 10 6 29 15 42 18 28 26 32 18 10z m94 -13 c2 -7 -1 -12 -8 -12 -6
0 -9 4 -6 9 4 5 1 12 -4 14 -6 3 -5 4 2 3 6 -1 14 -8 16 -14z m-42 -17 c-13
-10 -15 -15 -6 -15 7 0 11 -3 7 -6 -3 -3 -11 -3 -17 1 -13 8 5 35 24 35 6 0 2
-7 -8 -15z m-104 -2 c-10 -4 -10 -8 -1 -19 8 -10 8 -14 0 -14 -6 0 -11 5 -11
11 0 5 -6 7 -12 3 -9 -5 -9 -2 1 9 7 9 19 17 25 16 6 0 6 -3 -2 -6z m-24 -54
c-6 -4 -18 -4 -27 -1 -10 4 -11 7 -3 10 7 2 9 8 6 14 -3 5 3 4 15 -3 13 -9 16
-16 9 -20z m63 0 c-5 -13 -10 -19 -10 -12 -1 15 10 45 15 40 3 -2 0 -15 -5
-28z m-105 -3 c20 -21 17 -28 -6 -14 -11 7 -20 16 -20 20 0 12 10 9 26 -6z
m-1261 -106 c-8 -13 1 -13 28 1 21 10 21 10 3 -5 -12 -10 -28 -13 -40 -10 -18
6 -19 5 -7 -10 7 -9 9 -16 3 -16 -18 0 -21 29 -4 39 22 13 25 13 17 1z m79 -2
c-5 -8 -2 -9 12 -4 29 12 58 16 50 8 -4 -4 -11 -7 -14 -7 -20 -2 -52 -18 -52
-26 0 -5 -5 -9 -11 -9 -8 0 -8 5 1 15 18 21 4 19 -30 -6 -24 -18 -27 -25 -17
-40 8 -13 8 -21 -2 -33 -8 -9 -9 -16 -3 -16 15 0 35 28 27 39 -4 7 1 8 11 4
12 -4 15 -3 10 5 -4 7 -15 12 -24 13 -11 0 -13 2 -4 6 7 3 22 -3 32 -12 19
-17 18 -18 -7 -50 -23 -28 -28 -31 -40 -19 -16 15 -37 19 -29 5 3 -5 -1 -11
-9 -15 -22 -8 -18 2 12 30 23 21 25 28 15 44 -11 18 -7 23 29 50 46 33 54 36
43 18z m153 -3 c0 -8 -4 -12 -9 -9 -4 3 -8 0 -8 -7 0 -7 -3 -9 -6 -6 -4 4 -1
13 6 22 15 19 17 19 17 0z m30 0 c0 -8 -4 -15 -9 -15 -10 0 -11 14 -1 23 9 10
10 9 10 -8z m60 0 c0 -8 -4 -15 -9 -15 -10 0 -11 14 -1 23 9 10 10 9 10 -8z
m26 0 c-3 -9 -8 -14 -10 -11 -3 3 -2 9 2 15 9 16 15 13 8 -4z m25 -5 c-7 -10
-14 -17 -17 -15 -4 4 18 35 25 35 2 0 -1 -9 -8 -20z m106 6 c-3 -8 -12 -17
-20 -20 -18 -7 -18 -1 2 18 19 20 25 20 18 2z m207 0 c-9 -10 -6 -17 13 -30
24 -15 26 -15 35 3 6 10 7 22 3 26 -4 5 -2 5 5 2 6 -4 14 -1 16 5 3 8 6 9 6 2
1 -6 -8 -23 -20 -37 -18 -23 -23 -25 -42 -14 -31 17 -38 29 -25 44 6 7 13 13
15 13 3 0 0 -6 -6 -14z m36 -8 c0 -13 -1 -17 -4 -10 -3 6 -10 9 -16 5 -7 -4
-6 1 2 10 17 21 17 21 18 -5z m93 -10 c0 -19 -16 -5 -17 14 -2 18 0 20 7 8 5
-8 10 -18 10 -22z m25 23 c3 -5 0 -13 -6 -17 -7 -4 -9 -3 -5 4 3 5 0 13 -6 15
-9 4 -10 6 -1 6 6 1 14 -3 18 -8z m-419 -15 c19 -19 18 -32 -1 -16 -12 10 -18
10 -30 0 -18 -15 -20 -5 -2 15 15 18 16 18 33 1z m-296 -10 c0 -3 -4 -8 -10
-11 -5 -3 -10 -1 -10 4 0 6 5 11 10 11 6 0 10 -2 10 -4z m413 -3 c-7 -2 -13
-9 -13 -14 0 -6 5 -7 10 -4 6 3 10 1 10 -4 0 -14 -17 -14 -25 -1 -8 13 3 30
18 29 9 0 9 -2 0 -6z m-286 -9 c-3 -3 -12 -4 -19 -1 -8 3 -5 6 6 6 11 1 17 -2
13 -5z m90 0 c-3 -3 -12 -4 -19 -1 -8 3 -5 6 6 6 11 1 17 -2 13 -5z m551 -29
c-3 -3 -9 2 -12 12 -6 14 -5 15 5 6 7 -7 10 -15 7 -18z m-901 -27 c-3 -8 -6
-5 -6 6 -1 11 2 17 5 13 3 -3 4 -12 1 -19z m-11 -113 c-9 -9 -16 -13 -16 -8 0
12 22 34 28 28 2 -2 -3 -11 -12 -20z m31 -11 c-3 -3 -12 -4 -19 -1 -8 3 -5 6
6 6 11 1 17 -2 13 -5z m-12 -83 c-6 -5 -25 10 -25 20 0 5 6 4 14 -3 8 -7 12
-15 11 -17z m31 7 c0 -10 -1 -18 -1 -18 0 0 -8 9 -17 19 -16 18 -15 20 1 18 9
0 17 -9 17 -19z m-53 -23 c4 -8 3 -16 -1 -19 -4 -3 -9 4 -9 15 -2 23 3 25 10
4z m27 -18 c0 -2 -9 -14 -20 -27 -11 -13 -20 -19 -20 -15 0 5 7 17 17 27 15
17 23 22 23 15z m7 -43 c-3 -3 -12 -4 -19 -1 -8 3 -5 6 6 6 11 1 17 -2 13 -5z
m-24 -64 c9 -11 13 -20 7 -20 -5 0 -14 9 -20 20 -6 11 -9 20 -8 20 2 0 11 -9
21 -20z m43 -12 c0 -10 -1 -18 -1 -18 0 0 -8 9 -17 19 -16 18 -15 20 1 18 9 0
17 -9 17 -19z m-53 -23 c4 -8 3 -16 -1 -19 -4 -3 -9 4 -9 15 -2 23 3 25 10 4z
m3 -50 c-9 -9 -16 -13 -16 -8 0 12 22 34 28 28 2 -2 -3 -11 -12 -20z m31 -11
c-3 -3 -12 -4 -19 -1 -8 3 -5 6 6 6 11 1 17 -2 13 -5z m-12 -83 c-6 -5 -25 10
-25 20 0 5 6 4 14 -3 8 -7 12 -15 11 -17z m31 7 c0 -10 -1 -18 -1 -18 0 0 -8
9 -17 19 -16 18 -15 20 1 18 9 0 17 -9 17 -19z m-53 -23 c4 -8 3 -16 -1 -19
-4 -3 -9 4 -9 15 -2 23 3 25 10 4z m27 -18 c0 -2 -9 -14 -20 -27 -11 -13 -20
-19 -20 -15 0 5 7 17 17 27 15 17 23 22 23 15z m7 -43 c-3 -3 -12 -4 -19 -1
-8 3 -5 6 6 6 11 1 17 -2 13 -5z m-24 -64 c9 -11 13 -20 7 -20 -5 0 -14 9 -20
20 -6 11 -9 20 -8 20 2 0 11 -9 21 -20z m43 -12 c0 -10 -1 -18 -1 -18 0 0 -8
9 -17 19 -16 18 -15 20 1 18 9 0 17 -9 17 -19z m-52 -24 c3 -8 2 -12 -4 -9 -6
3 -10 10 -10 16 0 14 7 11 14 -7z m46 -4 c8 -5 12 -11 10 -14 -3 -2 -14 2 -24
10 -22 15 -10 19 14 4z m-199 -20 c6 0 8 4 5 8 -3 5 1 9 9 9 11 0 12 -4 4 -13
-15 -18 -48 -14 -41 5 4 10 7 11 10 3 2 -7 8 -12 13 -12z m74 10 c3 -5 1 -10
-4 -10 -6 0 -11 5 -11 10 0 6 2 10 4 10 3 0 8 -4 11 -10z m60 0 c3 -5 1 -10
-4 -10 -6 0 -11 5 -11 10 0 6 2 10 4 10 3 0 8 -4 11 -10z m1579 -2 c-3 -4 -9
-8 -15 -8 -5 0 -9 4 -9 8 0 5 7 9 15 9 8 0 12 -4 9 -9z m27 -10 c-11 -10 -23
-18 -26 -18 -3 0 0 8 6 18 7 10 18 19 25 19 10 0 8 -6 -5 -19z m73 10 c-3 -4
1 -8 9 -8 8 0 22 -9 32 -20 10 -11 13 -20 7 -20 -7 0 -12 4 -12 9 0 5 -13 14
-30 21 -32 13 -40 27 -15 27 8 0 12 -4 9 -9z m-1644 -13 c-7 -8 -20 -15 -29
-15 -11 1 -8 5 9 15 32 18 35 18 20 0z m1565 -35 c-10 -11 -13 -20 -7 -20 6 0
18 10 26 22 13 18 16 19 16 5 0 -9 -5 -17 -11 -17 -5 0 -8 -4 -5 -9 3 -5 0
-14 -8 -20 -10 -9 -19 -6 -37 10 -13 11 -19 18 -12 15 6 -4 20 4 30 18 10 13
20 22 22 20 2 -2 -4 -13 -14 -24z m192 -20 c1 -11 -2 -20 -7 -20 -6 0 -7 17
-1 38 3 8 7 -1 8 -18z m-1743 -5 c-4 -8 -8 -15 -10 -15 -2 0 -4 7 -4 15 0 8 4
15 10 15 5 0 7 -7 4 -15z m-139 -4 c3 -5 1 -12 -5 -16 -5 -3 -10 1 -10 9 0 18
6 21 15 7z"/>
<path d="M2314 3518 c-14 -23 -13 -36 5 -33 9 1 19 -3 23 -9 5 -8 8 -7 8 2 0
7 4 11 9 8 5 -3 12 1 15 10 3 9 2 12 -5 9 -6 -4 -19 1 -29 10 -14 13 -20 14
-26 3z m30 -17 c4 -5 -1 -8 -9 -7 -21 3 -31 16 -12 16 9 0 18 -4 21 -9z"/>
<path d="M2474 3518 c-14 -23 -13 -36 5 -33 9 1 19 -3 23 -9 5 -8 8 -7 8 2 0
7 4 11 9 8 5 -3 12 1 15 10 3 9 2 12 -5 9 -6 -4 -19 1 -29 10 -14 13 -20 14
-26 3z m30 -17 c4 -5 -1 -8 -9 -7 -21 3 -31 16 -12 16 9 0 18 -4 21 -9z"/>
<path d="M2549 3493 c-13 -16 -12 -17 4 -4 9 7 17 15 17 17 0 8 -8 3 -21 -13z"/>
<path d="M2800 3460 c-9 -6 -10 -10 -3 -10 6 0 15 5 18 10 8 12 4 12 -15 0z"/>
<path d="M1983 3428 c-1 -10 3 -18 8 -18 6 0 7 5 4 10 -6 10 9 15 30 10 6 -1
7 2 2 6 -15 15 -43 10 -44 -8z"/>
<path d="M3073 3433 c1 -12 6 -21 12 -20 5 1 9 -4 8 -10 -2 -7 2 -13 7 -13 9
0 14 14 11 33 0 4 5 7 12 7 8 0 7 3 -3 10 -9 5 -19 5 -26 -1 -8 -7 -14 -6 -17
3 -3 7 -4 3 -4 -9z m34 -8 c0 -8 -4 -12 -9 -9 -5 3 -6 10 -3 15 9 13 12 11 12
-6z"/>
<path d="M3171 3384 c6 -8 19 -14 27 -14 12 0 13 3 4 12 -6 6 -19 13 -27 14
-13 2 -14 -1 -4 -12z"/>
<path d="M1983 3350 c-1 -13 4 -20 15 -19 10 0 12 3 5 5 -7 3 -9 12 -6 20 3 8
1 14 -4 14 -5 0 -9 -9 -10 -20z"/>
<path d="M2012 3160 c0 -14 2 -19 5 -12 2 6 2 18 0 25 -3 6 -5 1 -5 -13z"/>
<path d="M2012 2920 c0 -14 2 -19 5 -12 2 6 2 18 0 25 -3 6 -5 1 -5 -13z"/>
<path d="M1992 2863 c-21 -31 -19 -53 6 -53 10 0 13 3 7 8 -15 10 -17 32 -3
32 6 0 8 3 5 7 -4 3 -2 12 4 20 6 7 9 13 6 13 -3 0 -14 -12 -25 -27z"/>
<path d="M1950 2755 c0 -8 3 -14 8 -14 21 4 30 -3 27 -20 -3 -14 1 -18 11 -14
8 3 13 11 10 19 -3 7 -2 15 2 17 4 2 2 2 -5 1 -6 -2 -17 4 -23 12 -16 18 -30
18 -30 -1z"/>
<path d="M2012 2680 c0 -14 2 -19 5 -12 2 6 2 18 0 25 -3 6 -5 1 -5 -13z"/>
<path d="M2006 2642 c-3 -5 1 -9 9 -9 8 0 12 4 9 9 -3 4 -7 8 -9 8 -2 0 -6 -4
-9 -8z"/>
<path d="M2012 2440 c0 -14 2 -19 5 -12 2 6 2 18 0 25 -3 6 -5 1 -5 -13z"/>
<path d="M2147 3509 c7 -7 15 -10 18 -7 3 3 -2 9 -12 12 -14 6 -15 5 -6 -5z"/>
<path d="M2824 3518 c-10 -13 -15 -20 -10 -16 5 4 15 3 21 -2 9 -8 13 -4 13
15 0 30 0 30 -24 3z"/>
<path d="M2646 3512 c-2 -4 4 -8 14 -8 10 0 16 4 14 8 -3 4 -9 8 -14 8 -5 0
-11 -4 -14 -8z"/>
<path d="M1976 2473 c-6 -14 -5 -15 5 -6 7 7 10 15 7 18 -3 3 -9 -2 -12 -12z"/>
<path d="M1999 1983 l-24 -28 28 24 c25 23 32 31 24 31 -2 0 -14 -12 -28 -27z"/>
<path d="M770 3802 c0 -4 10 -13 23 -21 22 -14 22 -14 3 8 -20 22 -26 25 -26
13z"/>
<path d="M761 3771 c-9 -6 -10 -11 -3 -15 6 -4 10 -12 8 -19 -1 -7 -1 -9 1 -4
3 4 8 5 12 3 4 -3 7 4 8 14 2 24 -8 32 -26 21z"/>
<path d="M4747 3773 c-10 -10 -8 -23 4 -23 5 0 8 4 5 9 -4 5 0 12 6 14 7 3 8
6 2 6 -6 1 -14 -2 -17 -6z"/>
<path d="M758 3701 c11 -6 10 -10 -4 -15 -18 -7 -13 -19 10 -22 7 -1 13 6 12
15 -1 9 5 15 14 13 8 -2 12 0 7 4 -4 4 -18 9 -30 11 -15 2 -18 0 -9 -6z"/>
<path d="M710 3560 c0 -5 5 -10 10 -10 6 0 10 5 10 10 0 6 -4 10 -10 10 -5 0
-10 -4 -10 -10z"/>
<path d="M4760 3540 c-13 -8 -12 -10 3 -10 9 0 17 5 17 10 0 12 -1 12 -20 0z"/>
<path d="M774 3519 c-3 -6 -2 -15 3 -20 5 -5 9 -1 9 11 0 23 -2 24 -12 9z"/>
<path d="M4744 3478 c-3 -4 -4 -8 -2 -9 25 -6 35 -5 35 5 0 14 -25 17 -33 4z"/>
<path d="M4750 3439 c0 -5 5 -7 10 -4 6 3 10 8 10 11 0 2 -4 4 -10 4 -5 0 -10
-5 -10 -11z"/>
<path d="M4775 3420 c3 -5 8 -10 11 -10 2 0 4 5 4 10 0 6 -5 10 -11 10 -5 0
-7 -4 -4 -10z"/>
<path d="M4732 3348 c-7 -9 -6 -17 3 -25 8 -7 16 -9 20 -4 3 5 1 12 -5 16 -6
4 -8 11 -5 16 9 13 -1 11 -13 -3z"/>
<path d="M3575 3340 c3 -5 8 -10 11 -10 2 0 4 5 4 10 0 6 -5 10 -11 10 -5 0
-7 -4 -4 -10z"/>
<path d="M710 3240 c0 -5 5 -10 10 -10 6 0 10 5 10 10 0 6 -4 10 -10 10 -5 0
-10 -4 -10 -10z"/>
<path d="M4727 3183 c-3 -4 1 -14 9 -20 7 -7 15 -9 18 -4 3 5 -1 14 -8 20 -8
7 -16 8 -19 4z"/>
<path d="M3640 3131 c0 -5 7 -15 17 -22 15 -13 15 -12 4 9 -12 23 -21 28 -21
13z"/>
<path d="M712 3045 c4 -4 2 -17 -3 -28 -10 -17 -9 -19 9 -15 12 3 23 1 26 -6
3 -7 5 -7 5 2 1 7 6 10 11 7 6 -3 10 -3 10 2 0 4 -15 16 -33 26 -17 11 -29 16
-25 12z"/>
<path d="M3687 3025 c-17 -24 -17 -24 15 -40 31 -15 32 -14 11 1 -27 20 -30
33 -5 29 9 -1 11 0 4 2 -10 4 -10 8 -1 19 6 8 8 14 3 14 -5 0 -17 -12 -27 -25z"/>
<path d="M3687 2968 c11 -19 12 -51 1 -65 -5 -7 -5 -14 2 -18 5 -3 10 1 10 10
0 13 4 14 23 5 20 -10 20 -10 4 3 -10 8 -17 19 -16 23 4 24 -3 42 -17 48 -10
4 -13 2 -7 -6z"/>
<path d="M4760 2900 c-13 -8 -12 -10 3 -10 9 0 17 5 17 10 0 12 -1 12 -20 0z"/>
<path d="M3699 2754 c-7 -9 -6 -12 6 -10 22 3 40 23 20 23 -8 0 -20 -6 -26
-13z"/>
<path d="M717 2693 c-4 -3 -7 -11 -7 -17 0 -6 5 -5 12 2 6 6 9 14 7 17 -3 3
-9 2 -12 -2z"/>
<path d="M773 2635 c0 -8 4 -12 9 -9 5 3 6 10 3 15 -9 13 -12 11 -12 -6z"/>
<path d="M4994 2542 c0 -21 28 -24 32 -3 2 7 0 7 -3 1 -3 -7 -9 -5 -17 5 -10
15 -12 14 -12 -3z"/>
<path d="M656 2511 c-13 -14 -14 -21 -5 -27 7 -4 10 -3 6 3 -9 15 29 23 42 10
6 -6 11 -8 11 -3 0 8 -25 36 -33 36 -2 0 -12 -9 -21 -19z"/>
<path d="M675 2480 c3 -5 8 -10 11 -10 2 0 4 5 4 10 0 6 -5 10 -11 10 -5 0 -7
-4 -4 -10z"/>
<path d="M3629 2478 c-1 -7 -1 -16 0 -20 2 -15 -17 -8 -23 7 -5 14 -8 14 -31
-1 -22 -15 -38 -53 -16 -40 10 7 24 -22 16 -34 -3 -4 1 -10 9 -13 17 -7 13 37
-6 60 -9 12 -9 15 0 9 7 -4 12 -2 12 4 0 6 5 8 10 5 6 -3 10 -11 10 -16 0 -6
-6 -7 -12 -3 -9 6 -9 3 1 -9 14 -18 43 -10 57 16 5 9 4 9 -7 0 -7 -7 -17 -13
-22 -13 -4 0 -5 6 0 13 9 15 15 47 8 47 -3 0 -6 -6 -6 -12z"/>
<path d="M697 2369 c7 -7 15 -10 18 -7 3 3 -2 9 -12 12 -14 6 -15 5 -6 -5z"/>
<path d="M5050 2362 c0 -5 7 -9 15 -9 8 0 12 4 9 9 -3 4 -9 8 -15 8 -5 0 -9
-4 -9 -8z"/>
<path d="M3516 2335 c-9 -23 -8 -25 9 -25 17 0 19 9 6 28 -7 11 -10 10 -15 -3z"/>
<path d="M729 2325 c-1 -3 -2 -8 -3 -12 -1 -5 -7 -18 -14 -30 -11 -19 -10 -21
10 -15 17 4 20 2 15 -11 -4 -11 1 -21 14 -28 19 -10 20 -9 9 10 -6 12 -7 21
-3 21 4 0 2 4 -6 9 -7 5 -10 14 -7 20 4 6 12 8 18 5 6 -4 6 2 -1 15 -11 19
-29 28 -32 16z m21 -14 c0 -5 -8 -15 -17 -22 -16 -12 -17 -12 -6 2 7 9 10 19
6 22 -3 4 -1 7 5 7 7 0 12 -4 12 -9z"/>
<path d="M3535 2280 c-3 -5 -1 -10 4 -10 6 0 11 5 11 10 0 6 -2 10 -4 10 -3 0
-8 -4 -11 -10z"/>
<path d="M3395 2210 c-4 -6 -14 -8 -23 -6 -11 4 -23 -4 -34 -23 -14 -26 -14
-32 -2 -48 13 -17 14 -17 8 0 -4 10 -3 17 2 16 29 -5 37 2 18 17 -19 15 -18
15 3 9 12 -3 24 -1 28 5 3 6 10 8 15 5 4 -3 7 2 6 10 -3 21 -13 28 -21 15z
m15 -4 c0 -2 -8 -10 -17 -17 -16 -13 -17 -12 -4 4 13 16 21 21 21 13z m-56
-44 c3 -5 -1 -9 -9 -9 -8 0 -12 4 -9 9 3 4 7 8 9 8 2 0 6 -4 9 -8z"/>
<path d="M3430 2200 c0 -5 5 -10 10 -10 6 0 10 5 10 10 0 6 -4 10 -10 10 -5 0
-10 -4 -10 -10z"/>
<path d="M4753 2165 c0 -8 4 -12 9 -9 5 3 6 10 3 15 -9 13 -12 11 -12 -6z"/>
<path d="M4765 2140 c-3 -5 -2 -10 4 -10 5 0 13 5 16 10 3 6 2 10 -4 10 -5 0
-13 -4 -16 -10z"/>
<path d="M3142 2121 c-10 -6 -10 -10 3 -21 8 -7 13 -22 11 -36 -3 -13 0 -27 6
-30 6 -4 8 -3 5 3 -7 11 28 45 37 36 3 -4 6 -1 6 6 0 7 4 10 9 7 5 -3 14 1 21
9 9 10 9 15 1 15 -6 0 -11 -4 -11 -8 0 -16 -35 -9 -48 10 -15 20 -21 22 -40 9z
m37 -48 c-6 -7 -14 -13 -17 -13 -3 0 -1 5 6 12 9 9 8 16 -6 32 -17 21 -17 21
5 2 18 -15 20 -22 12 -33z"/>
<path d="M712 2085 c4 -4 2 -17 -3 -28 -10 -17 -9 -19 9 -15 12 3 23 1 26 -6
3 -7 5 -7 5 2 1 7 6 10 11 7 6 -3 10 -3 10 2 0 4 -15 16 -33 26 -17 11 -29 16
-25 12z"/>
<path d="M4732 2068 c-7 -9 -6 -17 3 -25 8 -7 16 -9 20 -4 3 5 1 12 -5 16 -6
4 -8 11 -5 16 9 13 -1 11 -13 -3z"/>
<path d="M2223 2038 c-13 -21 -11 -56 3 -54 22 3 29 17 14 26 -8 5 -11 13 -6
17 5 4 11 2 13 -5 3 -6 9 -10 14 -7 5 4 6 0 3 -8 -9 -23 24 -29 36 -6 6 11 15
17 21 14 5 -4 9 -2 9 4 0 18 -19 22 -28 6 -7 -14 -11 -13 -34 5 -31 23 -34 24
-45 8z"/>
<path d="M2100 2020 c-7 -13 -17 -19 -26 -16 -8 3 -13 2 -9 -3 3 -5 0 -11 -7
-13 -7 -3 -5 -7 6 -11 11 -5 15 -3 10 5 -5 8 -1 9 12 4 10 -4 15 -4 11 0 -8 9
11 34 27 34 6 0 5 -4 -3 -9 -12 -8 -12 -11 1 -25 14 -14 15 -12 14 16 -2 38
-20 47 -36 18z"/>
<path d="M2344 2029 c-10 -17 13 -36 27 -22 12 12 4 33 -11 33 -5 0 -12 -5
-16 -11z"/>
<path d="M2750 2025 c7 -9 15 -13 17 -11 7 7 -7 26 -19 26 -6 0 -6 -6 2 -15z"/>
<path d="M2390 2020 c0 -5 5 -10 11 -10 5 0 7 5 4 10 -3 6 -8 10 -11 10 -2 0
-4 -4 -4 -10z"/>
<path d="M2632 2008 c-7 -7 -12 -8 -12 -2 0 5 -5 2 -10 -6 -7 -10 -13 -11 -17
-5 -9 12 -23 13 -40 2 -6 -4 -14 -2 -16 3 -3 6 -4 5 -3 -2 2 -8 21 -13 52 -13
27 0 55 -4 62 -9 11 -7 12 -4 3 11 -6 11 -7 23 -4 27 3 3 4 6 2 6 -3 0 -10 -5
-17 -12z"/>
<path d="M2470 2002 c0 -14 24 -22 39 -12 9 5 10 10 2 14 -6 4 -11 2 -11 -5 0
-8 -4 -8 -15 1 -9 7 -15 8 -15 2z"/>
<path d="M4727 1903 c-3 -4 1 -14 9 -20 7 -7 15 -9 18 -4 3 5 -1 14 -8 20 -8
7 -16 8 -19 4z"/>
<path d="M710 1640 c0 -5 5 -10 10 -10 6 0 10 5 10 10 0 6 -4 10 -10 10 -5 0
-10 -4 -10 -10z"/>
<path d="M4760 1620 c-13 -8 -12 -10 3 -10 9 0 17 5 17 10 0 12 -1 12 -20 0z"/>
<path d="M774 1599 c-3 -6 -2 -15 3 -20 5 -5 9 -1 9 11 0 23 -2 24 -12 9z"/>
<path d="M4744 1558 c-3 -4 -4 -8 -2 -9 25 -6 35 -5 35 5 0 14 -25 17 -33 4z"/>
<path d="M4750 1519 c0 -5 5 -7 10 -4 6 3 10 8 10 11 0 2 -4 4 -10 4 -5 0 -10
-5 -10 -11z"/>
<path d="M4775 1500 c3 -5 8 -10 11 -10 2 0 4 5 4 10 0 6 -5 10 -11 10 -5 0
-7 -4 -4 -10z"/>
<path d="M4732 1428 c-7 -9 -6 -17 3 -25 8 -7 16 -9 20 -4 3 5 1 12 -5 16 -6
4 -8 11 -5 16 9 13 -1 11 -13 -3z"/>
<path d="M710 1320 c0 -5 5 -10 10 -10 6 0 10 5 10 10 0 6 -4 10 -10 10 -5 0
-10 -4 -10 -10z"/>
<path d="M753 1295 c0 -8 4 -12 9 -9 4 3 8 9 8 15 0 5 -4 9 -8 9 -5 0 -9 -7
-9 -15z"/>
<path d="M3403 1265 c9 -6 15 -14 12 -17 -3 -2 2 -5 10 -5 8 0 12 4 9 9 -3 4
0 8 5 8 6 0 11 -7 11 -15 0 -8 5 -15 10 -15 6 0 10 4 10 9 0 15 -28 33 -57 36
-24 2 -25 1 -10 -10z"/>
<path d="M3735 1231 c-3 -5 -2 -12 3 -15 5 -3 9 1 9 9 0 17 -3 19 -12 6z"/>
<path d="M753 1215 c0 -8 3 -13 5 -10 3 3 12 -1 20 -8 13 -11 14 -9 1 11 -16
26 -26 28 -26 7z"/>
<path d="M4747 1204 c3 -7 9 -14 14 -14 14 0 10 17 -5 23 -10 4 -13 1 -9 -9z"/>
<path d="M1777 1169 c7 -7 15 -10 18 -7 3 3 -2 9 -12 12 -14 6 -15 5 -6 -5z"/>
<path d="M3715 1169 c-4 -6 -5 -12 -2 -15 2 -3 7 2 10 11 7 17 1 20 -8 4z"/>
<path d="M4744 1169 c-8 -14 11 -33 25 -25 11 7 4 36 -9 36 -5 0 -12 -5 -16
-11z m21 -9 c3 -5 1 -10 -4 -10 -6 0 -11 5 -11 10 0 6 2 10 4 10 3 0 8 -4 11
-10z"/>
<path d="M1950 1159 c0 -5 5 -7 10 -4 6 3 10 8 10 11 0 2 -4 4 -10 4 -5 0 -10
-5 -10 -11z"/>
<path d="M4755 1120 c3 -5 8 -10 11 -10 2 0 4 5 4 10 0 6 -5 10 -11 10 -5 0
-7 -4 -4 -10z"/>
<path d="M4750 1019 c0 -5 5 -7 10 -4 6 3 10 8 10 11 0 2 -4 4 -10 4 -5 0 -10
-5 -10 -11z"/>
<path d="M580 934 c8 -10 15 -20 16 -22 1 -2 4 1 7 5 3 5 -4 15 -16 23 -21 12
-21 12 -7 -6z"/>
<path d="M598 893 c7 -3 16 -2 19 1 4 3 -2 6 -13 5 -11 0 -14 -3 -6 -6z"/>
<path d="M4609 867 c5 -5 7 -16 4 -23 -3 -8 0 -14 7 -14 6 0 8 5 5 10 -3 6 2
10 12 11 11 0 13 3 5 6 -6 2 -10 8 -8 12 3 4 -4 7 -15 7 -11 0 -15 -4 -10 -9z"/>
<path d="M630 856 c0 -2 8 -10 18 -17 15 -13 16 -12 3 4 -13 16 -21 21 -21 13z"/>
<path d="M752 841 c-10 -6 -9 -11 5 -22 10 -7 15 -9 11 -5 -4 5 -3 15 3 23 13
14 1 17 -19 4z"/>
<path d="M4494 831 c18 -20 18 -20 -8 -27 -21 -5 -24 -9 -16 -20 14 -16 40 -7
40 14 0 13 3 12 15 -4 15 -17 15 -16 1 12 -8 17 -23 35 -33 38 -15 6 -15 5 1
-13z"/>
<path d="M4246 773 c-7 -8 5 -33 16 -33 5 0 6 5 3 10 -10 16 6 12 29 -7 13
-11 16 -12 9 -3 -6 8 -12 20 -12 25 -1 10 -37 16 -45 8z"/>
<path d="M1003 749 c-2 -23 3 -25 10 -4 4 8 3 16 -1 19 -4 3 -9 -4 -9 -15z"/>
<path d="M4216 754 c-4 -9 -4 -19 -1 -22 2 -3 7 3 11 12 4 9 4 19 1 22 -2 3
-7 -3 -11 -12z"/>
<path d="M4150 756 c0 -3 9 -10 20 -16 11 -6 20 -8 20 -6 0 3 -9 10 -20 16
-11 6 -20 8 -20 6z"/>
</g>
</svg>
